<?xml version="1.0" standalone="no"?>
<!DOCTYPE svg PUBLIC "-//W3C//DTD SVG 1.1//EN" "http://www.w3.org/Graphics/SVG/1.1/DTD/svg11.dtd" >
<svg xmlns="http://www.w3.org/2000/svg">
<metadata></metadata>
<defs>
<font id="trump_mediaevalbold" horiz-adv-x="1138" >
<font-face units-per-em="2048" ascent="1536" descent="-512" />
<missing-glyph horiz-adv-x="569" />
<glyph horiz-adv-x="0" />
<glyph horiz-adv-x="0" />
<glyph unicode="&#xd;" horiz-adv-x="512" />
<glyph unicode=" "  horiz-adv-x="569" />
<glyph unicode="&#x09;" horiz-adv-x="569" />
<glyph unicode="&#xa0;" horiz-adv-x="569" />
<glyph unicode="!" horiz-adv-x="681" d="M307 489l-123 689q-4 27 -9 53t-5 53q0 86 47 131t125 45t124 -45t46 -131q0 -27 -5 -53.5t-9 -52.5l-123 -689h-68zM338 -31q-72 0 -121 49.5t-49 120.5q0 72 49 123t121 51t123 -51t51 -123t-51 -121t-123 -49z" />
<glyph unicode="&#x22;" horiz-adv-x="819" d="M131 1313q-2 20 2 45.5t16.5 48.5t33 38t50.5 15q31 0 51.5 -15t33 -38t16.5 -48.5t2 -45.5l-45 -365q-4 -23 -13.5 -48.5t-44.5 -25.5t-44 26t-13 48zM483 1313q-2 20 2 45.5t16.5 48.5t33 38t51.5 15t51 -15t32.5 -38t16.5 -48.5t2 -45.5l-45 -365q-4 -23 -13 -48.5 t-44 -25.5t-44.5 26t-13.5 48z" />
<glyph unicode="#" d="M1063 467h-238l-71 -467h-170l71 467h-241l-72 -467h-170l72 467h-226v162h250l37 233h-229v162h254l67 436h170l-67 -436h241l68 436h170l-68 -436h209v-162h-233l-37 -233h213v-162zM475 862l-37 -233h242l37 233h-242z" />
<glyph unicode="$" d="M522 1364q-92 -18 -134 -81.5t-42 -152.5q0 -86 52.5 -142t123.5 -91v467zM612 66q201 39 201 249q0 49 -16.5 86t-44 65t-63.5 48.5t-77 38.5v-487zM522 592q-70 37 -136.5 73.5t-117.5 86t-81.5 118t-30.5 166.5q0 100 30.5 173t80.5 121t117 76t138 40v115h90v-115 q47 2 101.5 -10.5t100.5 -38t79 -63.5t37 -89q4 -45 -8.5 -81t-32 -60.5t-44 -36.5t-44.5 -12q-12 0 -21.5 5t-9.5 13q0 41 7 84t-1 83t-43 71.5t-121 52.5v-516q78 -33 151 -70t130 -88t92 -119.5t35 -164.5q0 -82 -32 -157t-86 -131.5t-129 -92t-161 -41.5v-172h-90v172 q-61 0 -126.5 12t-123 37.5t-97.5 68.5t-52 107q-6 35 -6 70.5t9 68.5t29.5 58.5t53.5 39.5q37 16 52 4t18.5 -34.5t0 -49t-3.5 -40.5q0 -117 65 -185.5t181 -74.5v526z" />
<glyph unicode="%" horiz-adv-x="2048" d="M528 735q-178 0 -276 94.5t-94 260.5q0 178 100 274t277 96q166 0 263 -93t97 -261q0 -172 -96.5 -271.5t-270.5 -99.5zM522 809q47 0 76 23.5t46.5 62.5t23.5 92t6 111q0 143 -31 215.5t-119 72.5q-45 0 -72.5 -24.5t-44 -65.5t-22.5 -93t-6 -109q0 -55 5 -107.5 t20.5 -91.5t44 -62.5t73.5 -23.5zM1366 1460h127l-838 -1491h-127zM1522 -31q-178 0 -276.5 94.5t-94.5 260.5q0 178 100.5 274t276.5 96q166 0 263 -93t97 -261q0 -172 -96 -271.5t-270 -99.5zM1516 43q47 0 75.5 23.5t46 62.5t23.5 92t6 111q0 143 -30.5 216t-118.5 73 q-45 0 -73 -25t-44.5 -66t-22.5 -93t-6 -109q0 -55 5 -107.5t20.5 -91.5t44.5 -62.5t74 -23.5z" />
<glyph unicode="&#x26;" horiz-adv-x="1820" d="M408 498q0 -86 40.5 -152.5t99 -113t123 -71t113.5 -24.5q92 0 159 39t101 74q-166 117 -300 240.5t-244 222.5q-43 -43 -67.5 -98.5t-24.5 -116.5zM664 913q72 53 99.5 123t27.5 156q0 35 -11.5 68.5t-33 58t-53 35t-75.5 -1.5q-49 -14 -73.5 -61.5t-24.5 -94.5 q0 -82 47.5 -153t96.5 -130zM463 764q-37 47 -64.5 85t-47 75t-29 76.5t-9.5 89.5q0 74 27 136t74 107t110.5 71t137.5 26q127 0 208.5 -67t81.5 -202q0 -51 -21.5 -95t-56 -81t-77.5 -67.5t-86 -55.5q55 -47 120.5 -103.5t132 -111.5t128 -104t108.5 -80q27 53 38 103 t11 100q0 41 -8 83t-26.5 76.5t-50 57t-81.5 22.5q-33 0 -54 -12t-50 -25l-29 45l203 158q18 14 28.5 14t28.5 -12q86 -53 123 -137t37 -182q0 -88 -35 -172t-73 -162l211 -141q10 -6 23 -16.5t24 -6.5q53 18 101 50t95 61l45 -41l-309 -353q-90 53 -174 112.5t-170 119.5 q-31 -27 -78 -67t-110.5 -77.5t-141.5 -64.5t-174 -27t-179 28t-144.5 79t-97.5 124.5t-36 164.5q0 78 26 138t69 108t100.5 85t120.5 68z" />
<glyph unicode="'" horiz-adv-x="569" d="M182 1313q-2 20 2 45.5t16.5 48.5t33 38t51.5 15t51 -15t32.5 -38t16.5 -48.5t2 -45.5l-45 -365q-4 -23 -13.5 -48.5t-43.5 -25.5q-35 0 -44.5 26t-13.5 48z" />
<glyph unicode="(" horiz-adv-x="569" d="M410 1606q-68 -223 -111 -448.5t-43 -459.5q0 -131 20.5 -273t54.5 -280.5t78 -263.5t91 -221l-226 -121q-104 231 -154 478t-50 503q0 285 71.5 555.5t182.5 530.5h86z" />
<glyph unicode=")" horiz-adv-x="569" d="M160 -461q68 223 110.5 448.5t42.5 458.5q0 131 -20.5 273.5t-54 281t-77.5 263.5t-91 221l225 121q104 -231 154.5 -478t50.5 -503q0 -285 -72 -555.5t-182 -530.5h-86z" />
<glyph unicode="*" d="M557 1460h29l73 -231h259l8 -31l-211 -131l67 -231l-20 -15l-195 144l-202 -140l-21 15l76 223l-207 137l8 27h258z" />
<glyph unicode="+" d="M485 575v371h166v-371h371v-165h-371v-371h-166v371h-370v165h370z" />
<glyph unicode="," horiz-adv-x="569" d="M31 -416q23 45 52.5 103.5t56 120t45 123t18.5 110.5q0 39 -8.5 64.5t-18.5 44t-18 31t-8 24.5l294 49q10 -16 20.5 -55t10.5 -70q0 -43 -42 -117.5t-97 -155.5t-109.5 -156t-79.5 -116h-116z" />
<glyph unicode="-" horiz-adv-x="681" d="M82 358v260h516v-260h-516z" />
<glyph unicode="." horiz-adv-x="569" d="M283 -31q-72 0 -121 49.5t-49 120.5q0 72 49 123t121 51t123 -51t51 -123t-51 -121t-123 -49z" />
<glyph unicode="/" horiz-adv-x="796" d="M598 1606h164l-565 -2067h-164z" />
<glyph unicode="0" d="M592 1460q123 0 211 -52t143 -147.5t82 -228.5t27 -295q0 -180 -27 -322.5t-86 -241.5t-153.5 -151.5t-227.5 -52.5q-113 0 -202 41t-150.5 130t-93 228.5t-31.5 336.5q0 133 18.5 268t72.5 243.5t153.5 176t263.5 67.5zM578 59q113 0 147.5 168t34.5 502q0 135 -7.5 253 t-26.5 205t-55 136t-93 47q-100 4 -153.5 -156.5t-45.5 -468.5q4 -164 12 -291.5t28.5 -214.5t58 -133.5t100.5 -46.5z" />
<glyph unicode="1" d="M422 117v1038l-227 41v78q57 12 125.5 32.5t137 45t132 53.5t108.5 55l23 -14v-1329l227 -39v-78h-753v78z" />
<glyph unicode="2" d="M88 150q98 61 199.5 154t184.5 202.5t135 228.5t52 232q0 55 -14 105t-43 88t-73 59.5t-103 21.5q-49 0 -92 -18.5t-74 -51t-48 -75.5t-17 -90t5 -77t9 -44l-78 -33q-14 45 -25.5 92t-11.5 94q0 100 36 178t97.5 132.5t141.5 83t168 28.5q78 0 151.5 -25.5t133 -72.5 t95 -113.5t35.5 -148.5q0 -141 -42 -241.5t-121.5 -193t-194.5 -191.5t-258 -241h727v-233h-975v150z" />
<glyph unicode="3" d="M270 791q18 -4 37 -4.5t37 -0.5q86 0 144.5 26t94 67t50 91t14.5 99q0 106 -53 179t-166 73q-53 0 -93 -22.5t-65.5 -57.5t-39 -76t-13.5 -75l-92 34q8 86 43 148.5t89 104.5t125 62.5t150 20.5q78 0 150 -19.5t127 -62.5t88 -109.5t33 -162.5q0 -66 -25.5 -121 t-68.5 -97t-98.5 -72t-114.5 -42v-20q84 -2 154.5 -22.5t123.5 -63.5t83 -109.5t30 -157.5q0 -111 -44 -191.5t-116 -133.5t-164 -80t-190 -27t-174 23.5t-130.5 63.5t-89 91.5t-49.5 106.5q23 18 45.5 36.5t51.5 41.5q6 -2 10 -22.5t12 -39.5q33 -78 94.5 -130t157.5 -52 q66 0 119 22.5t91 62.5t59.5 94.5t21.5 119.5q0 61 -22.5 114.5t-61.5 93.5t-91 63.5t-112 29.5q-41 4 -81 6t-81 -6v103z" />
<glyph unicode="4" d="M606 1430h258v-959h185v-160h-185v-311h-299v311h-502v162zM565 471v678h-4l-379 -678h383z" />
<glyph unicode="5" d="M154 328l12 -6q14 -111 87 -175.5t183 -64.5q66 0 117 23.5t86 66.5t53.5 101.5t18.5 127.5q0 68 -21.5 126.5t-60.5 101.5t-94.5 66.5t-124.5 23.5q-59 0 -115.5 -27.5t-83.5 -81.5l-76 31l92 789h697v-213h-602l-70 -426l14 -7q53 66 137 90.5t166 24.5q84 0 161 -25.5 t137.5 -78t96 -134t35.5 -196.5q0 -119 -43 -211t-116.5 -155.5t-171 -96.5t-205.5 -33q-147 0 -241.5 62.5t-160.5 191.5z" />
<glyph unicode="6" d="M958 1421q-129 -55 -234.5 -139t-180 -202.5t-115.5 -274.5t-41 -352q0 -197 48 -301.5t147 -104.5q55 0 87.5 40t48 95.5t19.5 114.5t4 100q0 49 -7 124t-30.5 140.5t-69.5 104.5t-124 18l35 56q29 18 57.5 23t61.5 5q84 0 152.5 -29.5t117.5 -85t75.5 -133t26.5 -174.5 q0 -109 -34.5 -196.5t-98 -150t-152.5 -96.5t-196 -34q-84 0 -167 28t-148.5 88t-106.5 156.5t-41 233.5q0 197 74 360.5t189.5 289.5t257 211t276.5 124z" />
<glyph unicode="7" d="M109 1430h962l14 -17q-106 -190 -205.5 -361t-197.5 -340t-199.5 -344t-212.5 -372l-114 -27l-6 17q184 330 335.5 621.5t247.5 512.5q6 16 13.5 30.5t-9.5 33.5h-628v246z" />
<glyph unicode="8" d="M428 657q-66 -41 -94.5 -114.5t-28.5 -149.5q0 -80 20.5 -142.5t55.5 -106.5t81 -67.5t95 -23.5q96 0 153.5 57.5t57.5 155.5q0 84 -30.5 140.5t-80 99.5t-110 77.5t-119.5 73.5zM561 1376q-53 0 -91 -22.5t-60.5 -59.5t-28.5 -84t4 -94t34.5 -86t59.5 -70.5t75 -58.5 t79 -49q53 31 90 93.5t37 168.5q0 47 -11.5 94t-35 84t-61.5 60.5t-91 23.5zM365 700q-98 68 -163 152t-65 209q0 96 34 171t93.5 125t138 76.5t168.5 26.5q82 0 154 -21.5t126 -61.5t85 -97t31 -129q0 -143 -68 -218t-190 -128q78 -43 136 -83t98 -88t60.5 -109.5 t20.5 -149.5q0 -98 -39 -174t-107.5 -127t-159.5 -78t-196 -27q-94 0 -173 25.5t-134 76t-86 122t-31 163.5q0 135 70 217t197 127z" />
<glyph unicode="9" d="M182 10q291 162 421 410t130 551q0 188 -51 296.5t-137 108.5q-59 0 -92 -38t-48.5 -93t-18.5 -114.5t-3 -102.5q0 -201 51 -299t180 -76l-32 -57q-63 -31 -133 -31q-100 0 -169 36t-112 95.5t-61.5 139t-18.5 165.5q0 104 36 188.5t96.5 145t140 93t167.5 32.5 q104 0 195.5 -29.5t159 -91t106.5 -159t39 -232.5q0 -166 -67.5 -315.5t-176 -275.5t-247 -225t-279.5 -163z" />
<glyph unicode=":" horiz-adv-x="569" d="M283 -31q-72 0 -121 49.5t-49 120.5q0 72 49 123t121 51t123 -51t51 -123t-51 -121t-123 -49zM283 676q-72 0 -121 49t-49 121t49 123t121 51t123 -51t51 -123t-51 -121t-123 -49z" />
<glyph unicode=";" horiz-adv-x="569" d="M31 -416q23 45 52.5 103.5t56 120t45 123t18.5 110.5q0 39 -8.5 64.5t-18.5 44t-18 31t-8 24.5l294 49q10 -16 20.5 -55t10.5 -70q0 -43 -42 -117.5t-97 -155.5t-109.5 -156t-79.5 -116h-116zM322 408q-72 0 -121 49t-49 121t49 123t121 51t123 -51.5t51 -122.5 q0 -72 -51 -121t-123 -49z" />
<glyph unicode="&#x3c;" d="M127 571l885 424v-164l-723 -342l723 -333v-164l-885 420v159z" />
<glyph unicode="=" d="M1022 735v-166h-907v166h907zM1022 416v-166h-907v166h907z" />
<glyph unicode="&#x3e;" d="M1012 416l-885 -424v164l723 342l-723 333v164l885 -420v-159z" />
<glyph unicode="?" horiz-adv-x="909" d="M330 426q25 70 56.5 147.5t60 158.5t49 161t20.5 154q0 92 -49 138t-121 46q-57 0 -96 -30t-49 -66l-58 28l111 230q47 37 101.5 52t111.5 15q127 0 213 -71.5t86 -208.5q0 -78 -43 -180.5t-102.5 -208t-122 -201.5t-103.5 -164h-65zM424 -31q-72 0 -121 51.5t-49 122.5 q0 72 49 125.5t121 53.5t123 -53.5t51 -125.5q0 -74 -51 -124t-123 -50z" />
<glyph unicode="@" horiz-adv-x="1509" d="M592 508q0 -16 8 -34.5t29 -18.5q25 0 50.5 22.5t47 53t36.5 63.5t23 53q10 25 25.5 61.5t30 75.5t25 76t10.5 64q0 20 -8.5 34.5t-30.5 14.5q-45 0 -89 -58.5t-79 -137.5t-56.5 -155.5t-21.5 -113.5zM958 1079h213l-182 -483q-8 -25 -19.5 -50.5t-13.5 -45t7.5 -32.5 t40.5 -13q39 0 92 28.5t101 80.5t82 128t34 168q0 109 -47 195t-121 146.5t-166 93t-182 32.5q-119 0 -225.5 -48t-188.5 -130t-130 -192.5t-48 -233.5q0 -131 47 -243.5t128 -196.5t191.5 -132.5t235.5 -48.5q158 0 298 76t222 215h129q-41 -106 -108.5 -186t-154.5 -132 t-188.5 -79t-209.5 -27q-150 0 -285 53.5t-242 161.5q-102 102 -159.5 242.5t-57.5 286.5q0 158 58.5 294t160 237.5t236.5 158.5t289 57q121 0 239.5 -39t212.5 -113.5t152.5 -185t58.5 -254.5q0 -133 -47 -236.5t-120.5 -175t-165 -108.5t-177.5 -37q-53 0 -95 25.5 t-44 81.5q-47 -41 -101.5 -72t-119.5 -31q-109 0 -163 72t-54 174q0 90 30.5 187.5t87 178.5t135 134t177.5 53q86 0 147 -63z" />
<glyph unicode="A" horiz-adv-x="1593" d="M37 0v78l164 41l495 1341h178l519 -1341l163 -41v-78h-694v78l191 41l-135 375h-451l-127 -375l190 -41v-78h-493zM504 606h368l-192 496z" />
<glyph unicode="B" horiz-adv-x="1366" d="M530 168q31 -29 75 -53.5t106 -24.5q55 0 99 22.5t76 61.5t48 91t16 114q0 68 -20.5 127t-59.5 103t-96 68.5t-129 24.5h-115v-534zM530 788q29 -2 60 0.5t59 4.5q117 6 168 85.5t51 188.5q0 164 -93 225.5t-245 42.5v-547zM872 754q172 -14 274.5 -104.5t102.5 -276.5 q0 -88 -37.5 -158t-104.5 -117t-157 -72.5t-194 -25.5h-709v78l184 41v1192l-184 41v78h666q104 0 190 -17.5t146.5 -56.5t93.5 -101.5t33 -152.5q0 -68 -24 -123t-66 -98t-97 -74t-117 -49v-4z" />
<glyph unicode="C" horiz-adv-x="1593" d="M1505 338l-16 -221q-51 -25 -101.5 -50.5t-115 -48t-150.5 -36t-209 -13.5q-174 0 -317 53.5t-245.5 153.5t-158 241.5t-55.5 319.5q0 190 61.5 326.5t167 224.5t247 130t300.5 42q117 0 229.5 -23.5t223.5 -50.5q10 -4 38 -6t44 -2v-401h-78q-23 180 -133.5 282.5 t-292.5 102.5q-115 0 -204 -49t-149.5 -135t-91 -202t-30.5 -251q0 -121 36 -238.5t106.5 -211t173 -150.5t233.5 -57q66 0 134.5 17t129.5 51t110.5 85t73.5 117h39z" />
<glyph unicode="D" horiz-adv-x="1705" d="M553 125q47 -20 96 -27.5t99 -7.5q137 0 233 45t156.5 125t88 188.5t27.5 237.5q0 176 -44 300t-119.5 202t-177 114.5t-216.5 36.5q-35 0 -69.5 -4t-73.5 -4v-1206zM47 78l207 41v1192l-203 41v78h823q154 0 284 -44.5t225.5 -131.5t148.5 -215t53 -296 q0 -199 -57.5 -339t-157.5 -230t-236.5 -132t-293.5 -42h-793v78z" />
<glyph unicode="E" horiz-adv-x="1251" d="M57 78l181 41v1192l-181 41v78h1030l15 -375h-74l-70 245h-421v-487h258l63 197h64q-4 -63 -8.5 -126t-4.5 -126t4.5 -127t8.5 -127h-70l-57 196h-258v-571h448l109 279h75l-57 -408h-1055v78z" />
<glyph unicode="F" d="M842 676h-297v-557l239 -41v-78h-727v78l189 41v1192l-189 41v78h1010l20 -371h-73l-70 241h-399v-512h297l63 197h64q-4 -63 -8.5 -125.5t-4.5 -126.5q0 -63 4.5 -126.5t8.5 -127.5h-70z" />
<glyph unicode="G" horiz-adv-x="1705" d="M1442 498v-322l84 -33v-41q-63 -25 -133 -48t-142.5 -41.5t-145.5 -31t-140 -12.5q-172 0 -324 37t-264.5 123t-178 227.5t-65.5 350.5q0 193 59.5 334t163 234t243.5 139t304 46q135 0 265 -24.5t257 -67.5l11 -383h-78q-10 82 -42 151.5t-83 122t-121 82t-156 29.5 q-133 0 -226 -58.5t-152.5 -150.5t-86 -207.5t-26.5 -232.5q0 -152 35 -274.5t100.5 -208.5t160.5 -132.5t214 -46.5q88 0 168 35v404l-246 41v77h756v-77z" />
<glyph unicode="H" horiz-adv-x="1705" d="M256 1311l-201 41v78h701v-78l-201 -41v-502h596v502l-201 41v78h701v-78l-201 -41v-1192l201 -41v-78h-701v78l201 41v569h-596v-569l201 -41v-78h-701v78l201 41v1192z" />
<glyph unicode="I" horiz-adv-x="796" d="M547 1311v-1192l201 -41v-78h-701v78l201 41v1192l-201 41v78h701v-78z" />
<glyph unicode="J" horiz-adv-x="796" d="M559 1311v-1133v-59.5t-4 -46t-14.5 -43t-30.5 -52.5q-100 -147 -196.5 -240t-192.5 -177l-47 39q51 70 87 130t57.5 123.5t31.5 133t10 155.5v1170l-201 41v78h701v-78z" />
<glyph unicode="K" horiz-adv-x="1478" d="M252 119v1192l-201 41v78h701v-78l-201 -41v-543q45 0 88 12q37 10 77 51t88 111t108.5 164t140.5 213l-152 33v78h494v-78q-25 -2 -51.5 -2t-53 -2t-49 -9.5t-35.5 -23.5q-92 -117 -174 -234.5t-168 -236.5q72 -102 150 -218t153.5 -224.5t147 -199.5t131.5 -145v-57 h-381l-451 674h-18h-45v-555l201 -41v-78h-701v78z" />
<glyph unicode="L" horiz-adv-x="1251" d="M553 1311v-1182h477l109 342h69l-39 -471h-1112v78l197 41v1192l-195 41v78h703v-78z" />
<glyph unicode="M" horiz-adv-x="2048" d="M47 0v78l180 41l185 1192l-217 41v78h575l250 -898l260 898h569v-78l-221 -41l184 -1192l179 -41v-78h-697v78l209 41l-162 1100h-4l-360 -1219h-100l-363 1219h-4l-152 -1100l201 -41v-78h-512z" />
<glyph unicode="N" horiz-adv-x="1705" d="M229 119l9 508q4 154 5 315.5t1 368.5l-201 41v78h512l791 -1086q-4 135 -7.5 272.5t-3.5 313.5v381l-223 41v78h549v-78l-188 -41l-9 -508q-2 -76 -3 -156t-2 -174t-1 -210v-263h-244l-858 1184v-559q0 -127 4.5 -252t6.5 -254l237 -41v-78h-561v78z" />
<glyph unicode="O" horiz-adv-x="1705" d="M868 1460q352 0 536.5 -189.5t184.5 -547.5q0 -180 -50 -320.5t-144.5 -236.5t-230.5 -146.5t-308 -50.5q-369 0 -552 190.5t-189 567.5q4 360 192 546.5t561 186.5zM842 1370q-86 0 -159 -32.5t-125 -105.5t-82 -188.5t-30 -279.5q0 -193 34 -327t90.5 -218t132 -122 t159.5 -38q109 0 183.5 52.5t121.5 137.5t68.5 193.5t21.5 221.5q0 190 -32.5 325t-90 220t-133 124t-159.5 37z" />
<glyph unicode="P" horiz-adv-x="1251" d="M551 682q23 -2 42 -3t42 -1q68 0 116 27.5t78.5 71.5t44 101.5t13.5 118.5q0 102 -22.5 169t-60.5 106t-86 53t-100 14h-67v-657zM252 119v1192l-180 41v78h702q86 0 162 -22t131 -66t87 -113.5t32 -167.5q0 -233 -137.5 -347t-386.5 -114q-29 0 -55.5 1t-55.5 1v-483 l264 -41v-78h-743v78z" />
<glyph unicode="Q" horiz-adv-x="1705" d="M870 -29q-381 -2 -566 188.5t-191 567.5q4 360 192.5 546.5t560.5 186.5q352 0 536.5 -189.5t184.5 -547.5q0 -258 -100.5 -432t-286.5 -254q119 -76 194.5 -117t141.5 -41q33 0 61.5 15.5t53.5 27.5l28 -55q-49 -29 -89 -56.5t-74.5 -49t-69.5 -35t-74 -13.5 q-37 0 -85 20.5t-79 39.5zM954 209l111 -80q51 39 87 97.5t59.5 129t33.5 149.5t10 159q0 190 -32.5 325t-90 220t-133 124t-159.5 37q-86 0 -159 -32.5t-125 -105.5t-82 -188.5t-30 -279.5q0 -176 29 -304t78 -212t115.5 -128t142.5 -54z" />
<glyph unicode="R" horiz-adv-x="1478" d="M559 709q25 -10 50.5 -13.5t52.5 -3.5q135 0 211.5 77t76.5 212q0 102 -24.5 171t-71.5 110t-114.5 59t-151.5 18h-29v-630zM260 119v1192l-201 41v78h664q117 0 214 -19.5t167 -65t107.5 -120t37.5 -187.5q0 -74 -23.5 -130t-59.5 -99t-79 -73.5t-81 -51.5 q129 -317 241.5 -481t200.5 -185l-27 -55l-415 94q-86 131 -162 268.5t-142 280.5q-35 -4 -71.5 -4t-71.5 4v-487l211 -41v-78h-711v78z" />
<glyph unicode="S" d="M946 1024h-74q-6 68 -23.5 130.5t-51 110.5t-87 76.5t-130.5 28.5q-98 0 -164 -51t-66 -156q0 -90 50.5 -143t126 -93t162.5 -75t163 -87t126 -134t50 -213q0 -98 -39 -180t-104.5 -141.5t-154.5 -93.5t-191 -34q-106 0 -213 29t-199 82q0 90 -3 179t-13 177h84 q8 -68 29.5 -135.5t60.5 -120.5t98 -87t143 -34q121 0 188.5 65.5t67.5 182.5q0 76 -48 126t-121.5 91t-157.5 81t-158 93.5t-122 129t-48 190.5q0 221 130 331.5t343 110.5q90 0 178 -24.5t168 -65.5v-346z" />
<glyph unicode="T" horiz-adv-x="1478" d="M606 119v1171h-368l-105 -309h-78l64 449h1290l39 -453h-78l-92 313h-373v-1171l256 -41v-78h-805v78z" />
<glyph unicode="U" horiz-adv-x="1705" d="M1481 1311v-711q0 -127 -22.5 -241.5t-89 -200.5t-187.5 -137.5t-320 -51.5q-315 2 -465.5 142.5t-150.5 377.5v822l-205 41v78h717v-78l-213 -41v-815q0 -193 97 -300.5t294 -107.5q137 0 219 43t126 114.5t58.5 166t14.5 194.5v705l-224 41v78h535v-78z" />
<glyph unicode="V" horiz-adv-x="1593" d="M61 1430h756v-78l-225 -41l348 -1006l367 1006l-209 41v78h469v-78l-133 -41l-490 -1311h-215l-469 1311l-199 41v78z" />
<glyph unicode="W" horiz-adv-x="2048" d="M39 1430h635v-78l-158 -41l246 -932h4l231 932l-172 41v78h619v-78l-150 -41l201 -932h4l277 932l-174 41v78h421v-78l-120 -41l-424 -1311h-195l-237 1075h-5l-272 -1075h-197l-376 1311l-158 41v78z" />
<glyph unicode="X" horiz-adv-x="1593" d="M45 0v78l182 41l416 530l-426 662l-172 41v78h750v-78l-205 -41l272 -426l322 426l-207 41v78h547v-78l-191 -41l-405 -512l444 -680l174 -41v-78h-751v78l211 41l-291 444l-336 -444l221 -41v-78h-555z" />
<glyph unicode="Y" horiz-adv-x="1478" d="M641 119v497l-420 695l-162 41v78h736v-78l-213 -41l307 -525l301 525l-186 41v78h448v-78l-123 -41l-389 -654v-538l242 -41v-78h-779v78z" />
<glyph unicode="Z" horiz-adv-x="1478" d="M154 1430h1185l13 -33l-860 -1268h712l121 324h78l-66 -453h-1249l-14 33l856 1267h-647l-107 -309h-78z" />
<glyph unicode="[" horiz-adv-x="569" d="M86 -461v2067h430v-78q-39 0 -96.5 -12.5t-91.5 -22.5v-1841q35 -10 92 -22.5t96 -12.5v-78h-430z" />
<glyph unicode="\" horiz-adv-x="569" d="M-78 1606h180l545 -1606h-180z" />
<glyph unicode="]" horiz-adv-x="569" d="M483 1606v-2067h-430v78q39 0 96.5 12.5t92.5 22.5v1841q-35 10 -92.5 22.5t-96.5 12.5v78h430z" />
<glyph unicode="^" d="M98 565l389 865h158l395 -865h-163l-312 690l-303 -690h-164z" />
<glyph unicode="_" horiz-adv-x="1024" d="M1024 -178v-105h-1024v105h1024z" />
<glyph unicode="`" horiz-adv-x="569" d="M434 1126q-96 55 -174 96.5t-130 73t-74.5 60t-8.5 61.5q23 53 84 53q31 0 78 -35.5t100 -88t109.5 -112.5t107.5 -108h-92z" />
<glyph unicode="a" horiz-adv-x="1024" d="M588 500q-39 -12 -84 -24.5t-83 -33t-62.5 -52.5t-24.5 -85q0 -66 27.5 -110.5t76.5 -44.5q39 0 80 23.5t70 41.5v285zM588 768q0 63 -20.5 111.5t-90.5 50.5q-33 0 -55.5 -18.5t-34.5 -49.5t-17 -69.5t-5 -79.5q-25 -6 -57 -16.5t-61.5 -18.5t-51 -13.5t-27.5 -2.5 q-31 8 -34 26.5t-3 52.5q0 78 22.5 115t92.5 70q80 39 177 66.5t183 27.5q129 0 192.5 -60.5t63.5 -201.5v-590l115 -25v-77q-96 -10 -187.5 -39t-181.5 -58l-20 15v170q-37 -27 -72 -60t-71.5 -60.5t-81 -46t-101.5 -18.5q-82 0 -136 73t-54 202q0 66 28.5 119t81.5 77 q96 47 199.5 72t206.5 51v205z" />
<glyph unicode="b" d="M440 299q0 -37 3 -80t15.5 -78t40 -58.5t76.5 -23.5q53 0 89 33t58.5 88.5t33 129t10.5 155.5q0 55 -6 115.5t-25.5 116t-54.5 101.5t-90 72q-12 6 -32.5 10.5t-43 6.5t-43 2t-31.5 -4v-586zM156 -45q4 55 7 169t3 292v968l-125 41v78q98 4 195.5 35t181.5 68l22 -15 v-651q57 23 121 51.5t131 28.5q84 0 149.5 -39t111.5 -105.5t71 -155.5t25 -192q0 -117 -34 -219t-93.5 -178t-143.5 -119t-184 -43q-96 0 -167 24.5t-140 96.5q-25 -33 -47.5 -66.5t-42.5 -68.5h-41z" />
<glyph unicode="c" horiz-adv-x="1024" d="M977 158q-47 -35 -98.5 -69t-105.5 -60.5t-111.5 -43t-118.5 -16.5q-111 0 -195 42t-140 113t-85 164t-29 197q0 123 34 222.5t96.5 169t151.5 106.5t202 37q168 0 264 -56.5t96 -152.5q0 -57 -45 -95t-129 -38q-37 0 -64.5 10t-31.5 21q-10 23 6 48t16 64q0 66 -38 97.5 t-79 31.5q-55 0 -91 -32.5t-56 -85t-28.5 -120t-8.5 -134.5q0 -92 23.5 -171t66.5 -135.5t102.5 -89t129.5 -32.5q74 0 139 28.5t127 63.5v-84z" />
<glyph unicode="d" d="M702 756q0 90 -42 132t-111 42q-88 0 -138.5 -76t-50.5 -270q0 -92 15.5 -171t45.5 -137.5t72 -92t93 -33.5q39 0 69.5 14t46.5 29v563zM702 1384l-124 41v78q98 4 195 35t181 68l23 -15v-1431l123 -27v-78q-98 -16 -194.5 -36.5t-196.5 -53.5l-11 10l4 148 q-27 -20 -57.5 -47t-65 -50.5t-75.5 -40t-88 -16.5q-72 0 -134.5 37t-107.5 103.5t-70.5 159.5t-25.5 204q0 143 38 246.5t98 170t136 98.5t152 32q78 0 125 -25.5t75 -48.5v438z" />
<glyph unicode="e" horiz-adv-x="1024" d="M360 539q8 -199 83 -304.5t241 -105.5q47 0 87 11.5t74 27.5t61.5 35.5t51.5 34.5l25 -62q-104 -84 -211.5 -145.5t-241.5 -61.5q-111 0 -194.5 42t-140 113t-85 164t-28.5 197q0 123 34 222.5t96 169t151.5 106.5t201.5 37q102 0 177 -41t120 -108.5t58.5 -154.5 t-7.5 -177h-553zM676 621q2 61 0 120.5t-16.5 105.5t-43 74.5t-81.5 28.5q-47 0 -80 -27.5t-54.5 -73.5t-31 -105.5t-9.5 -122.5h316z" />
<glyph unicode="f" horiz-adv-x="681" d="M45 895l127 35q0 29 -2 71.5t-3 93t1 102.5t8 101q6 47 23.5 101.5t50.5 100.5t83 76t124 30q98 0 152.5 -45t54.5 -125q0 -49 -24 -78t-73 -29q-33 0 -49 7t-23.5 21.5t-7.5 36v48.5q0 31 -15 61.5t-54 24.5q-41 0 -54.5 -37t-13.5 -72q0 -55 11.5 -118.5t26.5 -127 t32.5 -126t30.5 -117.5h186v-113h-186v-698l167 -41v-78h-573v78l131 41v698h-131v78z" />
<glyph unicode="g" horiz-adv-x="1024" d="M555 -78q-88 2 -159.5 15.5t-137.5 78.5q-23 -35 -41 -74.5t-18 -84.5q0 -61 23.5 -109.5t62.5 -82.5t91 -51t109 -17q53 0 106.5 11t98.5 36.5t73 67.5t28 104q0 49 -24 71.5t-59.5 30.5t-76.5 6t-76 -2zM483 950q-49 0 -75.5 -25.5t-39 -63.5t-15.5 -82t-3 -79 q0 -129 34 -198.5t112 -69.5q45 0 69.5 21.5t36.5 58.5t14 84t2 98q0 29 -1 73t-13 85t-40 69.5t-81 28.5zM983 967v-127h-141q16 -41 24 -70t8 -74q0 -80 -33.5 -142t-89 -105t-125 -65t-143.5 -22q-43 0 -86 10.5t-84 18.5q-14 -70 13.5 -109.5t77 -59t109.5 -24.5t108 -8 q76 0 141 -11t113.5 -42t76 -85t27.5 -140q0 -104 -44 -177t-114.5 -119t-159 -67.5t-178.5 -21.5q-63 0 -141 13.5t-144.5 46t-111.5 88t-45 137.5q0 98 56.5 149t142.5 82q-35 35 -41 85t4 102.5t28.5 101.5t30.5 86q-90 45 -129 111.5t-39 164.5q0 86 36 147.5 t93.5 101.5t130 58.5t148.5 18.5q59 0 120.5 -14.5t116.5 -38.5h244z" />
<glyph unicode="h" horiz-adv-x="1251" d="M43 0v78l139 41v1265l-125 41v78q98 4 195.5 35t181.5 68l23 -15v-743q59 33 102 64.5t83 55t81 38t96 14.5q51 0 97.5 -12.5t80 -42t53 -76.5t19.5 -115v-655l139 -41v-78h-540v78l127 41v575q0 78 -31 116t-109 38q-53 0 -101 -22.5t-97 -51.5v-655l127 -41v-78h-541z " />
<glyph unicode="i" horiz-adv-x="681" d="M49 0v78l156 41v680l-156 41v78q98 4 211 34.5t197 67.5l22 -14v-887l154 -41v-78h-584zM508 1366q0 -66 -49 -115t-115 -49t-115 49t-49 115q0 33 13.5 62.5t36 52t52 36t62.5 13.5t62.5 -13.5t52 -36t36 -52t13.5 -62.5z" />
<glyph unicode="j" horiz-adv-x="681" d="M111 -453q72 160 95 304.5t23 306.5v641l-155 41v78q98 4 210.5 34.5t196.5 67.5l23 -14v-805q0 -121 -23.5 -203t-66.5 -152.5t-104.5 -145.5t-139.5 -181zM516 1366q0 -66 -49 -115t-115 -49t-115 49t-49 115q0 33 13.5 62.5t36 52t52 36t62.5 13.5t62.5 -13.5t52 -36 t36 -52t13.5 -62.5z" />
<glyph unicode="k" horiz-adv-x="1251" d="M205 119v1265l-125 41v78q98 4 195.5 35t181.5 68l22 -15v-1061h29q90 88 166 176.5t151 178.5l-180 26v78h520v-78q-59 0 -90 -5t-55 -15q-37 -16 -75 -47t-72.5 -68t-67.5 -73.5t-62 -65.5q90 -117 159 -214t124 -173t100 -128t91 -77l-25 -53q-84 12 -168 11t-168 3 l-344 471h-33v-358l133 -41v-78h-555v78z" />
<glyph unicode="l" horiz-adv-x="681" d="M203 119v1265l-125 41v78q98 4 195.5 35t181.5 68l22 -15v-1472l150 -41v-78h-574v78z" />
<glyph unicode="m" horiz-adv-x="1933" d="M1104 119l127 -41v-78h-529v78l127 41v608q0 61 -30.5 96t-108.5 35q-47 0 -96 -23.5t-102 -52.5v-663l135 -41v-78h-549v78l139 41v698l-125 41v78q98 4 195.5 34.5t181.5 67.5l23 -14v-168q43 25 87 52.5t88 51t91 39t98 15.5q61 0 106.5 -14.5t75 -38t46 -53 t20.5 -60.5q59 33 102 64.5t83 55t81 38t96 14.5q51 0 97.5 -12.5t80 -42t53 -76.5t19.5 -115v-655l139 -41v-78h-540v78l127 41v575q0 78 -31 116t-108 38q-53 0 -101.5 -22.5t-97.5 -51.5v-655z" />
<glyph unicode="n" horiz-adv-x="1251" d="M182 817l-125 41v78q98 4 195.5 34.5t181.5 67.5l23 -14v-176q59 33 102 64.5t83 55t81 38t96 14.5q51 0 97.5 -12.5t80 -42t53 -76.5t19.5 -115v-655l139 -41v-78h-540v78l127 41v575q0 78 -31 116t-109 38q-53 0 -101 -22.5t-97 -51.5v-655l127 -41v-78h-541v78l139 41 v698z" />
<glyph unicode="o" d="M565 1020q246 0 367 -137.5t121 -376.5q0 -113 -30 -210t-89.5 -170t-148.5 -115t-210 -42q-254 0 -371.5 139.5t-117.5 387.5q0 262 121.5 392t357.5 132zM559 950q-59 0 -94 -33.5t-53.5 -89t-24.5 -127t-6 -149.5q0 -98 8 -190.5t28.5 -164t57.5 -114.5t94 -43 q55 0 92 38t58.5 97t30 136t8.5 153q0 248 -54.5 369.5t-144.5 117.5z" />
<glyph unicode="p" d="M451 88q14 -6 53 -19.5t86 1.5q61 16 98 58t57.5 95t27.5 113.5t7 114.5q0 76 -17.5 151.5t-56 132t-102 86t-153.5 13.5v-746zM176 -340v1108l-135 41v78q104 25 203.5 61.5t183.5 89.5l23 -14v-123q59 35 117.5 74t138.5 45q84 0 149.5 -39t111.5 -105.5t70.5 -155.5 t24.5 -192q0 -117 -34 -219t-93 -178t-143 -119t-185 -43q-41 0 -82 12.5t-75 34.5v-356l180 -41v-78h-588v78z" />
<glyph unicode="q" d="M688 692q4 141 -41 195.5t-110 54.5q-90 0 -137.5 -90t-47.5 -256q0 -104 17.5 -190.5t50.5 -147.5t81 -95t107 -34q23 0 44.5 7t35.5 11v545zM688 -340v428q-27 -18 -57.5 -38.5t-62 -38t-65.5 -30t-69 -12.5q-84 0 -149.5 39t-111.5 105.5t-70.5 155.5t-24.5 192 q0 117 33.5 219t93 178t143.5 119t184 43q80 0 146.5 -24.5t130.5 -73.5l160 120l28 -20q-23 -78 -28.5 -157t-5.5 -160v-1045l131 -41v-78h-596v78z" />
<glyph unicode="r" horiz-adv-x="796" d="M190 119v698l-124 41v78q98 4 195 34.5t181 67.5l23 -14v-227q25 31 50.5 69.5t54 72.5t60.5 57.5t66 23.5q16 0 35 -1t27 -5q6 -4 6 -21.5t-3 -53.5t-5 -90t2 -132l-15 -10q-2 -2 -13 5t-30.5 16t-45 16.5t-54.5 7.5q-18 0 -41.5 -4.5t-44 -12.5t-35 -20.5t-14.5 -26.5 v-569l197 -41v-78h-615v78z" />
<glyph unicode="s" horiz-adv-x="909" d="M465 950q-72 0 -116 -38t-44 -107q0 -57 38 -88t95.5 -52.5t123 -42t122.5 -57.5t95 -98t38 -164q0 -68 -27.5 -128t-77.5 -106t-122 -73t-162 -27q-96 0 -169 25.5t-161 56.5q0 76 -1 141.5t-5 153.5h68q10 -57 30.5 -112.5t53 -98.5t81 -69.5t113.5 -26.5q49 0 82 14.5 t53.5 38t29.5 50t9 51.5q0 63 -37.5 99t-95 59.5t-123 44t-123 56t-95.5 94t-38 159.5q0 78 31 136t82 98t117.5 60.5t136.5 20.5q82 0 153.5 -20.5t147.5 -49.5q0 -43 1 -114.5t1 -141.5h-70q-6 49 -23.5 95.5t-46 82t-70.5 57t-95 21.5z" />
<glyph unicode="t" horiz-adv-x="796" d="M57 895q66 25 120 64.5t98 88t77 96.5t51 87h66v-301h236v-113h-236v-485q0 -106 42 -146.5t93 -40.5q41 0 78 20.5t45 27.5l29 -58q-39 -31 -74 -58.5t-72 -48t-77.5 -31.5t-94.5 -11q-76 0 -123 30.5t-73.5 77.5t-36.5 104.5t-10 110.5v508h-138v78z" />
<glyph unicode="u" horiz-adv-x="1251" d="M782 842l-145 41v78q106 4 212.5 18t184.5 41l23 -14v-846l123 -27v-78q-98 -16 -193.5 -36.5t-193.5 -53.5l-11 10v148q-45 -25 -84 -49.5t-77.5 -45t-83.5 -33.5t-105 -13q-111 0 -179.5 57t-68.5 197v606l-145 41v78q106 4 212.5 18t184.5 41l23 -14v-680 q-4 -104 34.5 -144.5t110.5 -40.5q59 0 103.5 24.5t74.5 51.5v625z" />
<glyph unicode="v" d="M141 893q-25 10 -57.5 14t-54.5 4v78h569v-78q-53 0 -149 -22l200 -592l213 590q-39 10 -74.5 17t-70.5 7v78h373v-78q-53 0 -107 -20l-354 -903q-16 2 -35 4t-35 2q-18 0 -35.5 -2t-36.5 -4z" />
<glyph unicode="w" horiz-adv-x="1705" d="M33 989h608v-78q-43 0 -88 -4t-88 -18l166 -590l215 690q47 -6 92 -6q47 0 92 6l205 -694l186 596q-47 12 -92 16t-92 4v78h422v-78q-59 0 -119 -18l-315 -905l-40 4t-40 2t-40 -2l-40 -4l-217 678l-221 -678l-40 4t-40 2t-40 -2l-40 -4l-299 899q-35 10 -67.5 17 t-67.5 7v78z" />
<glyph unicode="x" d="M41 0v78q27 0 54.5 4t54.5 14l290 346l-284 447q-57 23 -115 22v78h559v-78q-61 0 -121 -12l150 -246l186 244q-23 4 -51.5 9t-54.5 5v78h368v-78q-31 0 -64.5 -6t-62.5 -22l-270 -312l301 -473q20 -12 51 -16t66 -4v-78h-566v78q63 0 132 22l-170 265l-201 -271 q25 -10 56.5 -13t64.5 -3v-78h-373z" />
<glyph unicode="y" d="M156 885q-25 10 -60 18t-63 8v78h540v-78q-31 0 -61.5 -6t-58.5 -16l198 -617l211 617q-39 16 -79 19t-74 3v78h387v-78q-63 0 -105 -32q-104 -242 -190 -464t-160 -401.5t-141.5 -303.5t-134.5 -171h-189l-10 31q49 27 99 71t93 95t78 102t56 92z" />
<glyph unicode="z" horiz-adv-x="1024" d="M66 0l-11 31l523 839h-347q-29 -55 -47 -112.5t-37 -116.5h-69l41 348h813l6 -37l-518 -833h377q23 63 46 126.5t42 129.5h73q-12 -94 -19 -188.5t-17 -186.5h-856z" />
<glyph unicode="{" horiz-adv-x="704" d="M475 -180q0 -115 38 -179.5t151 -97.5v-4q-129 -6 -213 11.5t-132.5 58.5t-67 104.5t-18.5 149.5v446q0 47 -7 89t-27.5 76t-58.5 59.5t-99 41.5v5q61 14 99 34.5t58.5 52t27.5 75.5t7 104v397q0 104 18.5 176t67 115t132.5 59.5t213 12.5v-4q-111 -31 -150 -96.5 t-39 -176.5v-418q0 -63 -7 -118.5t-28.5 -98.5t-62.5 -71.5t-111 -42.5v-5q61 -8 102.5 -34.5t65 -66.5t32.5 -92t9 -114v-448z" />
<glyph unicode="|" horiz-adv-x="569" d="M201 1606h166v-1606h-166v1606z" />
<glyph unicode="}" horiz-adv-x="704" d="M229 1325q0 115 -37.5 179.5t-150.5 97.5v4q129 6 213 -11.5t132 -58.5t66.5 -104.5t18.5 -149.5v-446q0 -47 7 -88t27.5 -75t58.5 -60.5t100 -43.5v-4q-61 -14 -99.5 -34.5t-59 -52.5t-27.5 -76t-7 -103v-397q0 -104 -18.5 -176t-66.5 -115t-132 -59.5t-213 -12.5v4 q111 31 149.5 96.5t38.5 176.5v417q0 66 7.5 120.5t29 97.5t62.5 71.5t110 42.5v4q-61 10 -102 36t-64.5 66t-33 92t-9.5 114v448z" />
<glyph unicode="~" d="M59 416q27 43 56.5 83t65.5 70.5t80 50t99 19.5q57 0 117 -18.5t116 -41t106.5 -41t88.5 -18.5q29 0 52.5 13.5t43 34t36 44t30.5 43.5l129 -82q-27 -39 -56.5 -76.5t-63 -68.5t-75.5 -49.5t-96 -18.5q-53 0 -111.5 18.5t-114.5 42t-107.5 42t-89.5 18.5q-35 0 -60.5 -14 t-46 -35.5t-38 -48.5t-34.5 -51z" />
<glyph unicode="&#xa1;" horiz-adv-x="681" d="M375 526l123 -688q4 -27 9 -53.5t5 -52.5q0 -86 -47 -131t-125 -45t-124 45t-46 131q0 27 5 53.5t9 52.5l123 688h68zM338 702q-72 0 -121 49.5t-49 120.5q0 72 49 123.5t121 51.5t123 -51.5t51 -123.5t-51 -121t-123 -49z" />
<glyph unicode="&#xa2;" d="M573 934q-39 -14 -65.5 -50t-41.5 -84t-22.5 -105.5t-7.5 -116.5q0 -113 37 -203t100 -146v705zM653 1020q160 -4 251 -60.5t91 -148.5q0 -57 -45 -95t-129 -38q-37 0 -64.5 10t-31.5 21q-10 23 6.5 48t16.5 64q0 59 -30 88t-65 33v-766q51 -27 115 -26q74 0 139.5 28.5 t126.5 63.5v-84q-84 -63 -180 -117.5t-201 -67.5v-166h-80v164q-104 4 -183 47t-132 113t-79.5 162t-26.5 192q0 229 111.5 369.5t309.5 159.5v110h80v-104z" />
<glyph unicode="&#xa3;" d="M377 127q-4 2 -7 3t-8 3q-33 16 -75.5 34.5t-79.5 18.5q-33 0 -65.5 -22.5t-32.5 -57.5q0 -12 10 -29.5t31 -25.5q66 -27 123 1t104 75zM963 795v-99h-314q16 -35 26.5 -71.5t10.5 -75.5q0 -78 -30.5 -140.5t-65.5 -125.5q25 -10 58.5 -25.5t68.5 -31t68.5 -26 t60.5 -10.5q39 0 69.5 17.5t56 45.5t46 59.5t39.5 60.5l63 -39q-35 -59 -71.5 -124t-79.5 -118t-93.5 -88t-109.5 -35q-41 0 -80 12.5t-77 31t-73.5 39t-72.5 36.5q-25 -16 -53.5 -36.5t-60.5 -39t-65.5 -31t-68.5 -12.5q-82 0 -132 34t-50 106q0 53 26.5 97t68.5 76.5 t95 50t105 17.5q45 0 83 -9t68 -22q12 47 6 92.5t-24.5 91.5t-47 93t-61.5 100h-280v99h225q-35 59 -66.5 124.5t-31.5 139.5q0 96 34.5 170t94 126t139.5 78.5t168 26.5q78 0 138.5 -20.5t100 -53t60 -74.5t20.5 -85q0 -55 -26.5 -100.5t-73.5 -73.5q-20 -12 -49 -12.5 t-27 14.5q4 33 10.5 64.5t6.5 66.5q0 90 -44 141t-128 51q-43 0 -77 -18.5t-55.5 -48t-33 -67.5t-11.5 -79q0 -49 16.5 -98t40 -96t51.5 -91t52 -85h357z" />
<glyph unicode="&#xa4;" d="M207 389q-41 59 -61.5 119.5t-20.5 134.5q0 76 19.5 137.5t62.5 122.5l-74 74l103 106l75 -75q59 43 127 63.5t140 20.5t132 -21.5t119 -62.5l76 75l105 -106l-76 -74q43 -66 61.5 -128t18.5 -140q0 -72 -20.5 -129t-59.5 -117l76 -76l-105 -104l-76 76 q-59 -41 -126.5 -62.5t-139.5 -21.5t-133 21.5t-119 62.5l-75 -76l-103 104zM578 907q-57 0 -106.5 -20.5t-85.5 -55t-56.5 -84t-20.5 -106.5q0 -55 21.5 -102t58.5 -81t85 -53.5t101 -19.5t99.5 21.5t81.5 58.5t54 84t19 98t-19 98.5t-54 83t-80 57t-98 21.5z" />
<glyph unicode="&#xa5;" d="M463 119v332h-328v122h328v84l-60 121h-268v123h205l-242 410l-141 41v78h647v-78l-188 -41l270 -525l264 525l-164 41v78h396v-78l-109 -41l-213 -410h205v-123h-268l-60 -121v-84h328v-122h-328v-332l207 -41v-78h-684v78z" />
<glyph unicode="&#xa6;" horiz-adv-x="569" d="M201 602h166v-602h-166v602zM201 1606h166v-602h-166v602z" />
<glyph unicode="&#xa7;" d="M786 238q29 35 46.5 73.5t17.5 83.5q0 86 -48 147.5t-121 118t-160 113.5t-167 133q-31 -31 -49 -72.5t-18 -84.5q0 -92 56 -163t136 -130.5t165 -111.5t142 -107zM313 950q-49 66 -73.5 119t-24.5 137q0 80 25.5 146.5t75 115t121 76t165.5 27.5q51 0 105.5 -12.5 t98.5 -38t72.5 -68.5t28.5 -104q0 -57 -31.5 -84t-76.5 -27q-37 0 -51.5 11.5t-17.5 26.5t0 31.5t3 28.5q0 72 -44 116t-116 44q-84 0 -118.5 -52t-34.5 -124q0 -74 45 -128t112.5 -101.5t147.5 -94.5t147.5 -107.5t112.5 -140t45 -192.5t-54 -202t-140 -158 q53 -55 74.5 -124t21.5 -143q0 -78 -29 -145.5t-79 -116.5t-117.5 -77.5t-145.5 -28.5q-76 0 -143.5 16t-117.5 49t-80 80t-30 107q0 53 34 83.5t87 30.5q39 0 70 -14q-12 -57 -3 -107.5t32.5 -87t59.5 -58t79 -21.5q72 0 125 47t53 139q0 72 -46 126t-114.5 102 t-149.5 96.5t-149.5 109.5t-115 140t-46.5 190q0 117 48 203.5t159 158.5z" />
<glyph unicode="&#xa8;" horiz-adv-x="569" d="M63 1165q-51 0 -91 40t-40 91t39 91t92 40t92.5 -38.5t39.5 -92.5q0 -53 -39.5 -92t-92.5 -39zM504 1165q-51 0 -91 40t-40 91t39 91t92 40t92 -38.5t39 -92.5q0 -53 -39 -92t-92 -39z" />
<glyph unicode="&#xa9;" horiz-adv-x="1568" d="M776 -31q-152 0 -287 59.5t-235 161t-158.5 237.5t-58.5 288q0 154 58.5 289t158.5 236t235.5 160.5t288.5 59.5q158 0 295 -57t238.5 -157.5t161 -237t59.5 -293.5q0 -158 -60.5 -294t-163 -236.5t-240.5 -158t-292 -57.5zM791 113q117 0 220 48t180 131t122 192.5 t45 232.5q0 125 -45 234.5t-124 190.5t-183.5 128t-225.5 47q-117 0 -220 -48t-181 -130t-123 -190.5t-45 -231.5q0 -125 46 -235.5t125 -192.5t184.5 -129t224.5 -47zM1102 877h-64q-4 104 -63.5 156t-163.5 52q-78 0 -129 -28.5t-82 -76.5t-43 -110.5t-12 -132.5 q0 -72 14 -139.5t47 -119.5t87.5 -82.5t131.5 -30.5q117 0 168 35.5t82 99.5l51 -21q-41 -106 -140 -160.5t-218 -54.5q-96 0 -175 35t-134.5 95.5t-85 142t-29.5 178.5q0 102 32 186t91 144.5t142 94.5t184 34q78 0 156.5 -17.5t152.5 -42.5v-237z" />
<glyph unicode="&#xaa;" horiz-adv-x="655" d="M35 635h635v-100h-635v100zM387 1296q0 41 -14.5 73t-67.5 34q-47 0 -64.5 -44t-15.5 -97q-18 -4 -41.5 -10.5t-45 -12.5t-37 -9t-19.5 -3q-23 6 -26 18t-3 35q0 51 16.5 74.5t69.5 46.5q59 25 129 42t131 17q94 0 141.5 -38t45.5 -132v-383l84 -18v-47 q-68 -8 -135.5 -26.5t-133.5 -37.5l-12 10v109q-27 -18 -52.5 -38.5t-53 -38t-60.5 -30t-73 -12.5q-59 0 -98.5 46t-39.5 132q0 41 21.5 76t58.5 51q70 29 144.5 46.5t150.5 33.5v133zM387 1122q-29 -8 -60.5 -15t-59 -20.5t-46 -34t-18.5 -55.5q0 -43 19.5 -70.5 t56.5 -27.5q29 0 57.5 13.5t50.5 23.5v186z" />
<glyph unicode="&#xab;" d="M967 846q-23 -39 -49.5 -82t-48 -89t-36 -93t-14.5 -95q0 -45 14.5 -93t36 -94t48 -89t49.5 -82h-74q-31 27 -81 70t-98 92t-83 101t-35 100q0 43 35 94t83 100t98 91t81 69h74zM543 846q-23 -39 -49.5 -82t-48 -89t-36 -93t-14.5 -95q0 -45 14.5 -93t36 -94t48 -89 t49.5 -82h-74q-31 27 -81 70t-98 92t-83 101t-35 100q0 43 35 94t83 100t98 91t81 69h74z" />
<glyph unicode="&#xac;" d="M856 569h-741v166h907v-551h-166v385z" />
<glyph unicode="&#xad;" horiz-adv-x="681" d="M82 358v260h516v-260h-516z" />
<glyph unicode="&#xae;" horiz-adv-x="1568" d="M776 -31q-152 0 -287 59.5t-235 161t-158.5 237.5t-58.5 288q0 154 58.5 289t158.5 236t235.5 160.5t288.5 59.5q158 0 295 -57t238.5 -157.5t161 -237t59.5 -293.5q0 -158 -60.5 -294t-163 -236.5t-240.5 -158t-292 -57.5zM791 113q117 0 220 48t180 131t122 192.5 t45 232.5q0 125 -45 234.5t-124 190.5t-183.5 128t-225.5 47q-117 0 -220 -48t-181 -130t-123 -190.5t-45 -231.5q0 -125 46 -235.5t125 -192.5t184.5 -129t224.5 -47zM1122 313q-18 0 -42.5 -4t-53.5 0t-60.5 20.5t-64.5 55.5q-27 33 -44 85t-38.5 100t-52.5 81t-84 25 v-227q0 -37 16.5 -48.5t55.5 -11.5v-76h-328v76q59 0 77.5 11.5t18.5 48.5v546q0 35 -18.5 47.5t-77.5 12.5v75h332q49 0 104.5 -4t103.5 -23.5t79.5 -59t31.5 -113.5q0 -45 -18.5 -83t-49 -66.5t-69.5 -45t-82 -20.5v-4q33 -4 58.5 -23.5t46 -48.5t38 -63.5t31.5 -67.5 q33 -70 60.5 -96.5t81.5 -22.5v-76h-52zM682 752h39q31 0 63.5 3t60 19.5t47 49t26.5 94.5q-12 86 -56.5 111.5t-105.5 25.5q-39 0 -56.5 -7.5t-17.5 -52.5v-243z" />
<glyph unicode="&#xaf;" horiz-adv-x="569" d="M4 1237v123h561v-123h-561z" />
<glyph unicode="&#xb0;" horiz-adv-x="819" d="M717 1153q0 -63 -24.5 -119.5t-66.5 -97.5t-97.5 -65.5t-118.5 -24.5t-120 24.5t-97.5 65.5t-65.5 97.5t-25 119.5t24 118.5t65.5 97.5t98 66.5t120.5 24.5q63 0 118.5 -24.5t97.5 -66.5t66.5 -97.5t24.5 -118.5zM604 1153q0 80 -57.5 137.5t-138.5 57.5q-39 0 -75 -15.5 t-62.5 -42t-41 -61.5t-14.5 -76q0 -82 56.5 -138.5t138.5 -56.5q80 0 137 56.5t57 138.5z" />
<glyph unicode="&#xb1;" d="M485 711v235h166v-235h371v-166h-371v-236h-166v236h-370v166h370zM115 39v166h907v-166h-907z" />
<glyph unicode="&#xb2;" horiz-adv-x="681" d="M25 674q63 37 128.5 93t118 121.5t86 136.5t33.5 138q0 68 -34.5 117t-112.5 49q-66 0 -109 -42t-43 -99q0 -29 3 -46.5t7 -27.5l-51 -18q-10 27 -16 54.5t-6 55.5q0 59 23.5 106.5t63.5 80t91 50t108 17.5q49 0 98.5 -15t87.5 -43t61.5 -69t23.5 -90q0 -86 -28 -145.5 t-80 -114.5t-125.5 -114.5t-168.5 -143.5h473v-141h-632v90z" />
<glyph unicode="&#xb3;" horiz-adv-x="681" d="M170 1059q12 -4 23.5 -3t23.5 1q57 0 93 15t56.5 40t28.5 54.5t8 58.5q0 66 -29.5 111.5t-101.5 45.5q-35 0 -60.5 -14t-42.5 -36.5t-25.5 -47t-8.5 -47.5l-59 23q10 102 85 151t179 49q49 0 96 -11t83 -37t57.5 -66.5t21.5 -98.5q0 -39 -17.5 -71.5t-45 -58t-63.5 -43 t-73 -25.5v-13q109 -2 181.5 -51t72.5 -160q0 -66 -28.5 -114.5t-75.5 -80.5t-106.5 -48.5t-123.5 -16.5q-129 0 -198.5 53.5t-89.5 118.5q14 10 28.5 20.5t34.5 24.5q4 0 7 -12t8 -25q23 -47 62.5 -74.5t100.5 -27.5q84 0 135.5 48t51.5 126q0 74 -53.5 124t-131.5 56 q-27 2 -52 3t-52 -3v62z" />
<glyph unicode="&#xb4;" horiz-adv-x="569" d="M41 1126q51 47 107.5 107.5t109.5 113t100.5 88t77.5 35.5q61 0 84 -53q14 -33 -8.5 -61.5t-74.5 -60t-130 -72.5t-174 -97h-92z" />
<glyph unicode="&#xb5;" horiz-adv-x="1251" d="M782 842l-145 41v78q106 4 212.5 18t184.5 41l23 -14v-846l123 -27v-78q-98 -16 -193.5 -36.5t-193.5 -53.5l-11 10v148q-45 -25 -82.5 -49.5t-74.5 -45t-77 -33.5t-91 -13q-43 0 -87 13t-83 42v-143q0 -29 9 -62t20.5 -64.5t20.5 -59t9 -48.5q0 -23 -9 -46.5t-24.5 -43 t-35 -31.5t-41.5 -12q-20 0 -41 12t-36.5 31.5t-24.5 43.5t-9 46q0 20 9 48t20.5 59.5t20.5 64.5t9 62v948l-145 41v78q106 4 212.5 18t184.5 41l23 -14v-680q-4 -104 34.5 -144.5t110.5 -40.5q59 0 103.5 24.5t74.5 51.5v625z" />
<glyph unicode="&#xb6;" horiz-adv-x="1433" d="M1077 -123h156v-102h-819v102h155v797l-84 -4q-92 -4 -169.5 20.5t-134 74.5t-88.5 124t-32 166q0 139 51.5 215t132.5 110.5t181 42t197 7.5h610v-103h-156v-1450zM754 1327v-1450h139v1450h-139zM387 973q0 -43 6 -86t24.5 -78t54.5 -54.5t97 -17.5v590 q-59 2 -95 -15.5t-55.5 -47t-25.5 -67.5t-6 -79v-145z" />
<glyph unicode="&#xb7;" horiz-adv-x="569" d="M283 322q-72 0 -121 49t-49 121t49 123t121 51t123 -51.5t51 -122.5q0 -72 -51 -121t-123 -49z" />
<glyph unicode="&#xb8;" horiz-adv-x="569" d="M254 -139q33 10 79 10t89 -13.5t72.5 -44t29.5 -83.5q0 -86 -76.5 -132.5t-195.5 -46.5q-92 0 -155.5 21.5t-96.5 40.5l37 68q35 -20 84 -37t84 -17q39 0 70.5 12.5t48.5 49.5q16 37 -9.5 70.5t-66.5 33.5t-82 -6l-19 14l93 199h77z" />
<glyph unicode="&#xb9;" horiz-adv-x="681" d="M244 653v625l-148 22v48q37 8 82 20t90 26.5t86 32t70 33.5l14 -8v-799l148 -22v-47h-490v47z" />
<glyph unicode="&#xba;" horiz-adv-x="724" d="M375 1460q180 0 268 -89t88 -247q0 -74 -21.5 -136t-64.5 -109.5t-108.5 -74t-153.5 -26.5q-186 0 -271 89t-85 251q0 170 88 255t260 87zM371 1413q-43 0 -69 -21.5t-39 -57.5t-17 -83t-4 -98q0 -63 6 -122.5t21.5 -104.5t41 -73t66.5 -28t68.5 23.5t43 61.5t21.5 87.5 t6 98.5q0 160 -39.5 239.5t-105.5 77.5zM49 635h660v-100h-660v100z" />
<glyph unicode="&#xbb;" d="M596 129q23 39 49.5 82t48 89t35.5 94t14 93q0 47 -14 94.5t-35.5 93.5t-48.5 89t-49 82h74q31 -27 81 -70t98 -92t83 -101.5t35 -99.5q0 -43 -35 -94t-83 -100t-98.5 -91t-80.5 -69h-74zM172 129q23 39 49.5 82t48 89t35.5 94t14 93q0 47 -14 94.5t-35.5 93.5t-48 89 t-49.5 82h74q31 -27 81 -70t98 -92t83 -101.5t35 -99.5q0 -43 -35 -94t-83 -100t-98.5 -91t-80.5 -69h-74z" />
<glyph unicode="&#xbc;" horiz-adv-x="1708" d="M1278 1470h129l-899 -1511h-129zM250 653v625l-148 22v48q37 8 82 20t90 26.5t86 32t70 33.5l14 -8v-799l148 -22v-47h-490v47zM1317 858h168v-579h121v-93h-121v-186h-195v186h-325v99zM1290 279v411h-2l-248 -411h250z" />
<glyph unicode="&#xbd;" horiz-adv-x="1708" d="M1206 1470h129l-899 -1511h-129zM219 653v625l-147 22v48q37 8 82 20t90 26.5t86 32t69 33.5l15 -8v-799l147 -22v-47h-489v47zM1004 90q63 37 128.5 93.5t118 122t86 136t33.5 138.5t-35 116.5t-112 48.5q-66 0 -109 -41.5t-43 -99.5q0 -29 3 -46t7 -28l-51 -18 q-10 27 -16 54.5t-6 56.5q0 59 23.5 106t63.5 80t91 50.5t108 17.5q49 0 98.5 -15.5t87.5 -43t61.5 -68.5t23.5 -91q0 -86 -28 -145t-80 -114.5t-126 -115t-168 -143.5h473v-141h-632v90z" />
<glyph unicode="&#xbe;" horiz-adv-x="1708" d="M1315 1470h129l-899 -1511h-129zM242 1059q12 -4 23 -3t24 1q57 0 93 15t56.5 40t28.5 54.5t8 58.5q0 66 -29.5 111.5t-101.5 45.5q-35 0 -60.5 -14t-43 -36.5t-25.5 -47t-8 -47.5l-60 23q10 102 85 151t180 49q49 0 96 -11t83 -37t57.5 -66.5t21.5 -98.5 q0 -39 -17.5 -71.5t-45 -58t-63.5 -43t-73 -25.5v-13q109 -2 181.5 -51t72.5 -160q0 -66 -28.5 -114.5t-76 -80.5t-106.5 -48.5t-123 -16.5q-129 0 -198.5 53.5t-90.5 118.5q14 10 28.5 20.5t35.5 24.5q4 0 7 -12t7 -25q23 -47 63 -74.5t101 -27.5q84 0 135 48t51 126 q0 74 -53 124t-131 56q-27 2 -52.5 3t-51.5 -3v62zM1317 858h168v-579h121v-93h-121v-186h-195v186h-325v99zM1290 279v411h-2l-248 -411h250z" />
<glyph unicode="&#xbf;" horiz-adv-x="909" d="M580 598q-25 -70 -56.5 -147.5t-60.5 -158.5t-49.5 -161t-20.5 -154q0 -92 49.5 -138t120.5 -46q57 0 96 30t50 66l57 -28l-111 -230q-47 -37 -101 -52t-112 -15q-127 0 -213 71.5t-86 208.5q0 78 43 180.5t102.5 208t123 201.5t102.5 164h66zM485 702q-72 0 -121 49.5 t-49 120.5q0 72 49.5 123.5t120.5 51.5q72 0 123 -51.5t51 -123.5t-51 -121t-123 -49z" />
<glyph unicode="&#xc0;" horiz-adv-x="1593" d="M37 0v78l164 41l495 1341h178l519 -1341l163 -41v-78h-694v78l191 41l-135 375h-451l-127 -375l190 -41v-78h-493zM504 606h368l-192 496zM946 1566q-96 55 -174 96.5t-130 73t-74.5 60t-8.5 61.5q23 53 84 53q31 0 78 -35.5t100 -88t109.5 -112.5t107.5 -108h-92z" />
<glyph unicode="&#xc1;" horiz-adv-x="1593" d="M37 0v78l164 41l495 1341h178l519 -1341l163 -41v-78h-694v78l191 41l-135 375h-451l-127 -375l190 -41v-78h-493zM504 606h368l-192 496zM553 1566q51 47 107.5 107.5t109.5 113t100.5 88t77.5 35.5q61 0 84 -53q14 -33 -8.5 -61.5t-74.5 -60t-130 -72.5t-174 -97h-92z " />
<glyph unicode="&#xc2;" horiz-adv-x="1593" d="M37 0v78l164 41l495 1341h178l519 -1341l163 -41v-78h-694v78l191 41l-135 375h-451l-127 -375l190 -41v-78h-493zM504 606h368l-192 496zM860 1910l254 -346h-90l-231 199l-238 -199h-82l266 346h121z" />
<glyph unicode="&#xc3;" horiz-adv-x="1593" d="M37 0v78l164 41l495 1341h178l519 -1341l163 -41v-78h-694v78l191 41l-135 375h-451l-127 -375l190 -41v-78h-493zM504 606h368l-192 496zM514 1618q-2 53 15.5 98t50 75.5t77.5 41t101 -6.5q47 -12 97 -32.5t101 -12.5q39 6 46.5 34t13.5 50h63q0 -41 -9 -81.5 t-29.5 -72.5t-53.5 -51.5t-80 -19.5q-33 0 -64.5 8.5t-63 19.5t-62.5 20t-66 12q-41 4 -56 -19.5t-22 -62.5h-59z" />
<glyph unicode="&#xc4;" horiz-adv-x="1593" d="M37 0v78l164 41l495 1341h178l519 -1341l163 -41v-78h-694v78l191 41l-135 375h-451l-127 -375l190 -41v-78h-493zM504 606h368l-192 496zM575 1605q-51 0 -91 40t-40 91t39 91t92 40t92.5 -38.5t39.5 -92.5q0 -53 -39.5 -92t-92.5 -39zM1016 1605q-51 0 -91 40t-40 91 t39 91t92 40t92 -38.5t39 -92.5q0 -53 -39 -92t-92 -39z" />
<glyph unicode="&#xc5;" horiz-adv-x="1593" d="M37 0v78l164 41l495 1341h178l519 -1341l163 -41v-78h-694v78l191 41l-135 375h-451l-127 -375l190 -41v-78h-493zM504 606h368l-192 496zM578 1790q0 45 17 84t48 68.5t71 47t83 17.5q45 0 84 -17.5t68.5 -46t47 -68.5t17.5 -85t-17.5 -85t-46 -69t-68.5 -46t-85 -17 t-85 17t-70 47t-47 69t-17 84zM797 1669q49 0 85 34.5t36 86.5q0 49 -36 84.5t-85 35.5t-86 -35.5t-37 -84.5t37 -85t86 -36z" />
<glyph unicode="&#xc6;" horiz-adv-x="2048" d="M999 1307h-34l-285 -519h319v519zM786 78l213 41v557h-378l-299 -557l190 -41v-78h-494v78l162 41l668 1192l-207 41v78h1206l17 -365h-72l-63 235h-431v-512h258l64 197h63q-4 -63 -8 -125.5t-4 -126.5q0 -63 4 -126.5t8 -127.5h-69l-58 197h-258v-547h447l113 272h73 l-63 -401h-1082v78z" />
<glyph unicode="&#xc7;" horiz-adv-x="1593" d="M1505 338l-16 -221q-51 -25 -101.5 -50.5t-115 -48t-150.5 -36t-209 -13.5q-174 0 -317 53.5t-245.5 153.5t-158 241.5t-55.5 319.5q0 190 61.5 326.5t167 224.5t247 130t300.5 42q117 0 229.5 -23.5t223.5 -50.5q10 -4 38 -6t44 -2v-401h-78q-23 180 -133.5 282.5 t-292.5 102.5q-115 0 -204 -49t-149.5 -135t-91 -202t-30.5 -251q0 -121 36 -238.5t106.5 -211t173 -150.5t233.5 -57q66 0 134.5 17t129.5 51t110.5 85t73.5 117h39zM766 -139q33 10 79 10t89 -13.5t72.5 -44t29.5 -83.5q0 -86 -76.5 -132.5t-195.5 -46.5 q-92 0 -155.5 21.5t-96.5 40.5l37 68q35 -20 84 -37t84 -17q39 0 70.5 12.5t48.5 49.5q16 37 -9.5 70.5t-66.5 33.5t-82 -6l-19 14l93 199h77z" />
<glyph unicode="&#xc8;" horiz-adv-x="1251" d="M57 78l181 41v1192l-181 41v78h1030l15 -375h-74l-70 245h-421v-487h258l63 197h64q-4 -63 -8.5 -126t-4.5 -126t4.5 -127t8.5 -127h-70l-57 196h-258v-571h448l109 279h75l-57 -408h-1055v78zM776 1566q-96 55 -174 96.5t-130 73t-74.5 60t-8.5 61.5q23 53 84 53 q31 0 78 -35.5t100 -88t109.5 -112.5t107.5 -108h-92z" />
<glyph unicode="&#xc9;" horiz-adv-x="1251" d="M57 78l181 41v1192l-181 41v78h1030l15 -375h-74l-70 245h-421v-487h258l63 197h64q-4 -63 -8.5 -126t-4.5 -126t4.5 -127t8.5 -127h-70l-57 196h-258v-571h448l109 279h75l-57 -408h-1055v78zM383 1566q51 47 107.5 107.5t109.5 113t100.5 88t77.5 35.5q61 0 84 -53 q14 -33 -8.5 -61.5t-74.5 -60t-130 -72.5t-174 -97h-92z" />
<glyph unicode="&#xca;" horiz-adv-x="1251" d="M57 78l181 41v1192l-181 41v78h1030l15 -375h-74l-70 245h-421v-487h258l63 197h64q-4 -63 -8.5 -126t-4.5 -126t4.5 -127t8.5 -127h-70l-57 196h-258v-571h448l109 279h75l-57 -408h-1055v78zM690 1910l254 -346h-90l-231 199l-238 -199h-82l266 346h121z" />
<glyph unicode="&#xcb;" horiz-adv-x="1251" d="M57 78l181 41v1192l-181 41v78h1030l15 -375h-74l-70 245h-421v-487h258l63 197h64q-4 -63 -8.5 -126t-4.5 -126t4.5 -127t8.5 -127h-70l-57 196h-258v-571h448l109 279h75l-57 -408h-1055v78zM405 1605q-51 0 -91 40t-40 91t39 91t92 40t92.5 -38.5t39.5 -92.5 q0 -53 -39.5 -92t-92.5 -39zM846 1605q-51 0 -91 40t-40 91t39 91t92 40t92 -38.5t39 -92.5q0 -53 -39 -92t-92 -39z" />
<glyph unicode="&#xcc;" horiz-adv-x="796" d="M547 1311v-1192l201 -41v-78h-701v78l201 41v1192l-201 41v78h701v-78zM549 1566q-96 55 -174 96.5t-130 73t-74.5 60t-8.5 61.5q23 53 84 53q31 0 78 -35.5t100 -88t109.5 -112.5t107.5 -108h-92z" />
<glyph unicode="&#xcd;" horiz-adv-x="796" d="M547 1311v-1192l201 -41v-78h-701v78l201 41v1192l-201 41v78h701v-78zM156 1566q51 47 107.5 107.5t109.5 113t100.5 88t77.5 35.5q61 0 84 -53q14 -33 -8.5 -61.5t-74.5 -60t-130 -72.5t-174 -97h-92z" />
<glyph unicode="&#xce;" horiz-adv-x="796" d="M547 1311v-1192l201 -41v-78h-701v78l201 41v1192l-201 41v78h701v-78zM463 1910l254 -346h-90l-231 199l-238 -199h-82l266 346h121z" />
<glyph unicode="&#xcf;" horiz-adv-x="796" d="M547 1311v-1192l201 -41v-78h-701v78l201 41v1192l-201 41v78h701v-78zM178 1605q-51 0 -91 40t-40 91t39 91t92 40t92.5 -38.5t39.5 -92.5q0 -53 -39.5 -92t-92.5 -39zM619 1605q-51 0 -91 40t-40 91t39 91t92 40t92 -38.5t39 -92.5q0 -53 -39 -92t-92 -39z" />
<glyph unicode="&#xd0;" horiz-adv-x="1705" d="M254 1311l-203 41v78h823q154 0 284 -44.5t225.5 -131.5t148.5 -215t53 -296q0 -199 -57.5 -339t-157.5 -230t-236.5 -132t-293.5 -42h-793v78l207 41v588h-203v112h203v492zM553 819h225v-112h-225v-582q47 -20 96 -27.5t99 -7.5q137 0 233 45t156.5 125t88 188.5 t27.5 237.5q0 176 -44 300t-119.5 202t-177 114.5t-216.5 36.5q-35 0 -69.5 -4t-73.5 -4v-512z" />
<glyph unicode="&#xd1;" horiz-adv-x="1705" d="M229 119l9 508q4 154 5 315.5t1 368.5l-201 41v78h512l791 -1086q-4 135 -7.5 272.5t-3.5 313.5v381l-223 41v78h549v-78l-188 -41l-9 -508q-2 -76 -3 -156t-2 -174t-1 -210v-263h-244l-858 1184v-559q0 -127 4.5 -252t6.5 -254l237 -41v-78h-561v78zM571 1618 q-2 53 15.5 98t50 75.5t77.5 41t101 -6.5q47 -12 97 -32.5t101 -12.5q39 6 46.5 34t13.5 50h63q0 -41 -9 -81.5t-29.5 -72.5t-53.5 -51.5t-80 -19.5q-33 0 -64.5 8.5t-63 19.5t-62.5 20t-66 12q-41 4 -56 -19.5t-22 -62.5h-59z" />
<glyph unicode="&#xd2;" horiz-adv-x="1705" d="M868 1460q352 0 536.5 -189.5t184.5 -547.5q0 -180 -50 -320.5t-144.5 -236.5t-230.5 -146.5t-308 -50.5q-369 0 -552 190.5t-189 567.5q4 360 192 546.5t561 186.5zM842 1370q-86 0 -159 -32.5t-125 -105.5t-82 -188.5t-30 -279.5q0 -193 34 -327t90.5 -218t132 -122 t159.5 -38q109 0 183.5 52.5t121.5 137.5t68.5 193.5t21.5 221.5q0 190 -32.5 325t-90 220t-133 124t-159.5 37zM1003 1566q-96 55 -174 96.5t-130 73t-74.5 60t-8.5 61.5q23 53 84 53q31 0 78 -35.5t100 -88t109.5 -112.5t107.5 -108h-92z" />
<glyph unicode="&#xd3;" horiz-adv-x="1705" d="M868 1460q352 0 536.5 -189.5t184.5 -547.5q0 -180 -50 -320.5t-144.5 -236.5t-230.5 -146.5t-308 -50.5q-369 0 -552 190.5t-189 567.5q4 360 192 546.5t561 186.5zM842 1370q-86 0 -159 -32.5t-125 -105.5t-82 -188.5t-30 -279.5q0 -193 34 -327t90.5 -218t132 -122 t159.5 -38q109 0 183.5 52.5t121.5 137.5t68.5 193.5t21.5 221.5q0 190 -32.5 325t-90 220t-133 124t-159.5 37zM610 1566q51 47 107.5 107.5t109.5 113t100.5 88t77.5 35.5q61 0 84 -53q14 -33 -8.5 -61.5t-74.5 -60t-130 -72.5t-174 -97h-92z" />
<glyph unicode="&#xd4;" horiz-adv-x="1705" d="M868 1460q352 0 536.5 -189.5t184.5 -547.5q0 -180 -50 -320.5t-144.5 -236.5t-230.5 -146.5t-308 -50.5q-369 0 -552 190.5t-189 567.5q4 360 192 546.5t561 186.5zM842 1370q-86 0 -159 -32.5t-125 -105.5t-82 -188.5t-30 -279.5q0 -193 34 -327t90.5 -218t132 -122 t159.5 -38q109 0 183.5 52.5t121.5 137.5t68.5 193.5t21.5 221.5q0 190 -32.5 325t-90 220t-133 124t-159.5 37zM917 1910l254 -346h-90l-231 199l-238 -199h-82l266 346h121z" />
<glyph unicode="&#xd5;" horiz-adv-x="1705" d="M868 1460q352 0 536.5 -189.5t184.5 -547.5q0 -180 -50 -320.5t-144.5 -236.5t-230.5 -146.5t-308 -50.5q-369 0 -552 190.5t-189 567.5q4 360 192 546.5t561 186.5zM842 1370q-86 0 -159 -32.5t-125 -105.5t-82 -188.5t-30 -279.5q0 -193 34 -327t90.5 -218t132 -122 t159.5 -38q109 0 183.5 52.5t121.5 137.5t68.5 193.5t21.5 221.5q0 190 -32.5 325t-90 220t-133 124t-159.5 37zM571 1618q-2 53 15.5 98t50 75.5t77.5 41t101 -6.5q47 -12 97 -32.5t101 -12.5q39 6 46.5 34t13.5 50h63q0 -41 -9 -81.5t-29.5 -72.5t-53.5 -51.5t-80 -19.5 q-33 0 -64.5 8.5t-63 19.5t-62.5 20t-66 12q-41 4 -56 -19.5t-22 -62.5h-59z" />
<glyph unicode="&#xd6;" horiz-adv-x="1705" d="M868 1460q352 0 536.5 -189.5t184.5 -547.5q0 -180 -50 -320.5t-144.5 -236.5t-230.5 -146.5t-308 -50.5q-369 0 -552 190.5t-189 567.5q4 360 192 546.5t561 186.5zM842 1370q-86 0 -159 -32.5t-125 -105.5t-82 -188.5t-30 -279.5q0 -193 34 -327t90.5 -218t132 -122 t159.5 -38q109 0 183.5 52.5t121.5 137.5t68.5 193.5t21.5 221.5q0 190 -32.5 325t-90 220t-133 124t-159.5 37zM632 1605q-51 0 -91 40t-40 91t39 91t92 40t92.5 -38.5t39.5 -92.5q0 -53 -39.5 -92t-92.5 -39zM1073 1605q-51 0 -91 40t-40 91t39 91t92 40t92 -38.5 t39 -92.5q0 -53 -39 -92t-92 -39z" />
<glyph unicode="&#xd7;" d="M451 494l-338 337l118 117l338 -338l338 338l117 -117l-338 -337l338 -338l-117 -117l-338 338l-338 -338l-118 117z" />
<glyph unicode="&#xd8;" horiz-adv-x="1705" d="M1180 1120q-59 135 -146.5 194.5t-191.5 55.5q-86 0 -159 -32.5t-125 -105.5t-82 -188.5t-30 -279.5q0 -213 41 -354zM520 311q59 -135 148.5 -193.5t193.5 -58.5q109 0 183.5 52.5t121.5 137.5t68.5 193.5t21.5 221.5q0 111 -11 199.5t-32 158.5zM1427 1241 q162 -186 162 -518q0 -180 -50 -320.5t-144.5 -236.5t-230.5 -146.5t-308 -50.5q-332 0 -514 158l-162 -166l-67 66l163 168q-156 188 -161 532q4 360 192.5 546.5t560.5 186.5q315 0 494 -153l160 163l69 -61z" />
<glyph unicode="&#xd9;" horiz-adv-x="1705" d="M1481 1311v-711q0 -127 -22.5 -241.5t-89 -200.5t-187.5 -137.5t-320 -51.5q-315 2 -465.5 142.5t-150.5 377.5v822l-205 41v78h717v-78l-213 -41v-815q0 -193 97 -300.5t294 -107.5q137 0 219 43t126 114.5t58.5 166t14.5 194.5v705l-224 41v78h535v-78zM1003 1566 q-96 55 -174 96.5t-130 73t-74.5 60t-8.5 61.5q23 53 84 53q31 0 78 -35.5t100 -88t109.5 -112.5t107.5 -108h-92z" />
<glyph unicode="&#xda;" horiz-adv-x="1705" d="M1481 1311v-711q0 -127 -22.5 -241.5t-89 -200.5t-187.5 -137.5t-320 -51.5q-315 2 -465.5 142.5t-150.5 377.5v822l-205 41v78h717v-78l-213 -41v-815q0 -193 97 -300.5t294 -107.5q137 0 219 43t126 114.5t58.5 166t14.5 194.5v705l-224 41v78h535v-78zM610 1566 q51 47 107.5 107.5t109.5 113t100.5 88t77.5 35.5q61 0 84 -53q14 -33 -8.5 -61.5t-74.5 -60t-130 -72.5t-174 -97h-92z" />
<glyph unicode="&#xdb;" horiz-adv-x="1705" d="M1481 1311v-711q0 -127 -22.5 -241.5t-89 -200.5t-187.5 -137.5t-320 -51.5q-315 2 -465.5 142.5t-150.5 377.5v822l-205 41v78h717v-78l-213 -41v-815q0 -193 97 -300.5t294 -107.5q137 0 219 43t126 114.5t58.5 166t14.5 194.5v705l-224 41v78h535v-78zM917 1910 l254 -346h-90l-231 199l-238 -199h-82l266 346h121z" />
<glyph unicode="&#xdc;" horiz-adv-x="1705" d="M1481 1311v-711q0 -127 -22.5 -241.5t-89 -200.5t-187.5 -137.5t-320 -51.5q-315 2 -465.5 142.5t-150.5 377.5v822l-205 41v78h717v-78l-213 -41v-815q0 -193 97 -300.5t294 -107.5q137 0 219 43t126 114.5t58.5 166t14.5 194.5v705l-224 41v78h535v-78zM632 1605 q-51 0 -91 40t-40 91t39 91t92 40t92.5 -38.5t39.5 -92.5q0 -53 -39.5 -92t-92.5 -39zM1073 1605q-51 0 -91 40t-40 91t39 91t92 40t92 -38.5t39 -92.5q0 -53 -39 -92t-92 -39z" />
<glyph unicode="&#xdd;" horiz-adv-x="1478" d="M641 119v497l-420 695l-162 41v78h736v-78l-213 -41l307 -525l301 525l-186 41v78h448v-78l-123 -41l-389 -654v-538l242 -41v-78h-779v78zM496 1566q51 47 107.5 107.5t109.5 113t100.5 88t77.5 35.5q61 0 84 -53q14 -33 -8.5 -61.5t-74.5 -60t-130 -72.5t-174 -97h-92z " />
<glyph unicode="&#xde;" horiz-adv-x="1251" d="M551 524h84q68 0 116 22.5t78.5 60.5t44 86t13.5 100q0 86 -22.5 141t-60.5 88t-86 45t-100 12h-67v-555zM252 119v1192l-180 41v78h659v-78l-180 -41v-162h223q86 0 162 -17.5t131 -55.5t87 -96t32 -140q0 -197 -137.5 -291t-386.5 -94h-111v-336l264 -41v-78h-743v78z " />
<glyph unicode="&#xdf;" horiz-adv-x="1251" d="M455 119l151 -49q-10 16 -19 37.5t-9 44.5q0 61 33.5 92.5t95.5 21.5q14 -4 28.5 -15t12.5 -20q-35 -180 106 -180q51 0 87 40t36 104q2 51 -25.5 95t-69.5 88t-93.5 89t-96.5 93t-78.5 104.5t-42.5 121.5q119 98 196 236.5t77 286.5q4 94 -43 154.5t-123 64.5 q-127 -2 -175 -130t-48 -366v-913zM43 0v78l137 41v698h-137v78l137 35q0 96 7.5 189t48.5 188q57 129 173.5 214t282.5 85q66 0 126.5 -16.5t107.5 -50.5t74.5 -87t27.5 -125q0 -92 -38 -159.5t-84 -118t-84 -86t-38 -62.5q0 -23 29 -53.5t72 -67.5t94 -83t94 -103t72 -125 t29 -147q0 -74 -27 -136.5t-75 -107.5t-112.5 -69.5t-140.5 -24.5q-16 0 -37.5 2t-42 5t-38 6t-27.5 3h-631z" />
<glyph unicode="&#xe0;" horiz-adv-x="1024" d="M588 500q-39 -12 -84 -24.5t-83 -33t-62.5 -52.5t-24.5 -85q0 -66 27.5 -110.5t76.5 -44.5q39 0 80 23.5t70 41.5v285zM588 768q0 63 -20.5 111.5t-90.5 50.5q-33 0 -55.5 -18.5t-34.5 -49.5t-17 -69.5t-5 -79.5q-25 -6 -57 -16.5t-61.5 -18.5t-51 -13.5t-27.5 -2.5 q-31 8 -34 26.5t-3 52.5q0 78 22.5 115t92.5 70q80 39 177 66.5t183 27.5q129 0 192.5 -60.5t63.5 -201.5v-590l115 -25v-77q-96 -10 -187.5 -39t-181.5 -58l-20 15v170q-37 -27 -72 -60t-71.5 -60.5t-81 -46t-101.5 -18.5q-82 0 -136 73t-54 202q0 66 28.5 119t81.5 77 q96 47 199.5 72t206.5 51v205zM661 1126q-96 55 -174 96.5t-130 73t-74.5 60t-8.5 61.5q23 53 84 53q31 0 78 -35.5t100 -88t109.5 -112.5t107.5 -108h-92z" />
<glyph unicode="&#xe1;" horiz-adv-x="1024" d="M588 500q-39 -12 -84 -24.5t-83 -33t-62.5 -52.5t-24.5 -85q0 -66 27.5 -110.5t76.5 -44.5q39 0 80 23.5t70 41.5v285zM588 768q0 63 -20.5 111.5t-90.5 50.5q-33 0 -55.5 -18.5t-34.5 -49.5t-17 -69.5t-5 -79.5q-25 -6 -57 -16.5t-61.5 -18.5t-51 -13.5t-27.5 -2.5 q-31 8 -34 26.5t-3 52.5q0 78 22.5 115t92.5 70q80 39 177 66.5t183 27.5q129 0 192.5 -60.5t63.5 -201.5v-590l115 -25v-77q-96 -10 -187.5 -39t-181.5 -58l-20 15v170q-37 -27 -72 -60t-71.5 -60.5t-81 -46t-101.5 -18.5q-82 0 -136 73t-54 202q0 66 28.5 119t81.5 77 q96 47 199.5 72t206.5 51v205zM268 1126q51 47 107.5 107.5t109.5 113t100.5 88t77.5 35.5q61 0 84 -53q14 -33 -8.5 -61.5t-74.5 -60t-130 -72.5t-174 -97h-92z" />
<glyph unicode="&#xe2;" horiz-adv-x="1024" d="M588 500q-39 -12 -84 -24.5t-83 -33t-62.5 -52.5t-24.5 -85q0 -66 27.5 -110.5t76.5 -44.5q39 0 80 23.5t70 41.5v285zM588 768q0 63 -20.5 111.5t-90.5 50.5q-33 0 -55.5 -18.5t-34.5 -49.5t-17 -69.5t-5 -79.5q-25 -6 -57 -16.5t-61.5 -18.5t-51 -13.5t-27.5 -2.5 q-31 8 -34 26.5t-3 52.5q0 78 22.5 115t92.5 70q80 39 177 66.5t183 27.5q129 0 192.5 -60.5t63.5 -201.5v-590l115 -25v-77q-96 -10 -187.5 -39t-181.5 -58l-20 15v170q-37 -27 -72 -60t-71.5 -60.5t-81 -46t-101.5 -18.5q-82 0 -136 73t-54 202q0 66 28.5 119t81.5 77 q96 47 199.5 72t206.5 51v205zM575 1470l254 -346h-90l-231 199l-238 -199h-82l266 346h121z" />
<glyph unicode="&#xe3;" horiz-adv-x="1024" d="M588 500q-39 -12 -84 -24.5t-83 -33t-62.5 -52.5t-24.5 -85q0 -66 27.5 -110.5t76.5 -44.5q39 0 80 23.5t70 41.5v285zM588 768q0 63 -20.5 111.5t-90.5 50.5q-33 0 -55.5 -18.5t-34.5 -49.5t-17 -69.5t-5 -79.5q-25 -6 -57 -16.5t-61.5 -18.5t-51 -13.5t-27.5 -2.5 q-31 8 -34 26.5t-3 52.5q0 78 22.5 115t92.5 70q80 39 177 66.5t183 27.5q129 0 192.5 -60.5t63.5 -201.5v-590l115 -25v-77q-96 -10 -187.5 -39t-181.5 -58l-20 15v170q-37 -27 -72 -60t-71.5 -60.5t-81 -46t-101.5 -18.5q-82 0 -136 73t-54 202q0 66 28.5 119t81.5 77 q96 47 199.5 72t206.5 51v205zM229 1178q-2 53 15.5 98t50 75.5t77.5 41t101 -6.5q47 -12 97 -32.5t101 -12.5q39 6 46.5 34t13.5 50h63q0 -41 -9 -81.5t-29.5 -72.5t-53.5 -51.5t-80 -19.5q-33 0 -64.5 8.5t-63 19.5t-62.5 20t-66 12q-41 4 -56 -19.5t-22 -62.5h-59z" />
<glyph unicode="&#xe4;" horiz-adv-x="1024" d="M588 500q-39 -12 -84 -24.5t-83 -33t-62.5 -52.5t-24.5 -85q0 -66 27.5 -110.5t76.5 -44.5q39 0 80 23.5t70 41.5v285zM588 768q0 63 -20.5 111.5t-90.5 50.5q-33 0 -55.5 -18.5t-34.5 -49.5t-17 -69.5t-5 -79.5q-25 -6 -57 -16.5t-61.5 -18.5t-51 -13.5t-27.5 -2.5 q-31 8 -34 26.5t-3 52.5q0 78 22.5 115t92.5 70q80 39 177 66.5t183 27.5q129 0 192.5 -60.5t63.5 -201.5v-590l115 -25v-77q-96 -10 -187.5 -39t-181.5 -58l-20 15v170q-37 -27 -72 -60t-71.5 -60.5t-81 -46t-101.5 -18.5q-82 0 -136 73t-54 202q0 66 28.5 119t81.5 77 q96 47 199.5 72t206.5 51v205zM290 1165q-51 0 -91 40t-40 91t39 91t92 40t92.5 -38.5t39.5 -92.5q0 -53 -39.5 -92t-92.5 -39zM731 1165q-51 0 -91 40t-40 91t39 91t92 40t92 -38.5t39 -92.5q0 -53 -39 -92t-92 -39z" />
<glyph unicode="&#xe5;" horiz-adv-x="1024" d="M588 500q-39 -12 -84 -24.5t-83 -33t-62.5 -52.5t-24.5 -85q0 -66 27.5 -110.5t76.5 -44.5q39 0 80 23.5t70 41.5v285zM588 768q0 63 -20.5 111.5t-90.5 50.5q-33 0 -55.5 -18.5t-34.5 -49.5t-17 -69.5t-5 -79.5q-25 -6 -57 -16.5t-61.5 -18.5t-51 -13.5t-27.5 -2.5 q-31 8 -34 26.5t-3 52.5q0 78 22.5 115t92.5 70q80 39 177 66.5t183 27.5q129 0 192.5 -60.5t63.5 -201.5v-590l115 -25v-77q-96 -10 -187.5 -39t-181.5 -58l-20 15v170q-37 -27 -72 -60t-71.5 -60.5t-81 -46t-101.5 -18.5q-82 0 -136 73t-54 202q0 66 28.5 119t81.5 77 q96 47 199.5 72t206.5 51v205zM293 1350q0 45 17 84t48 68.5t71 47t83 17.5q45 0 84 -17.5t68.5 -46t47 -68.5t17.5 -85t-17.5 -85t-46 -69t-68.5 -46t-85 -17t-85 17t-70 47t-47 69t-17 84zM512 1229q49 0 85 34.5t36 86.5q0 49 -36 84.5t-85 35.5t-86 -35.5t-37 -84.5 t37 -85t86 -36z" />
<glyph unicode="&#xe6;" horiz-adv-x="1478" d="M1141 657q2 61 0 115.5t-14.5 93.5t-36 61.5t-64.5 22.5q-61 0 -97 -41t-54.5 -98t-23.5 -120.5t-5 -106.5zM596 764q0 37 -3 69.5t-14.5 59.5t-31 42t-53.5 15q-47 0 -75 -18.5t-42.5 -52t-18.5 -79.5t-4 -102q0 -12 1 -20t-9 -14q-10 -8 -29.5 -13.5t-41 -8.5t-41 -5 t-31.5 -2q-27 0 -46.5 9t-23.5 32q-18 88 8.5 152.5t104.5 109.5q55 31 130 56.5t140 25.5q72 0 142.5 -20.5t123.5 -73.5q59 43 122 68.5t136 25.5q162 0 250 -93t92 -298l-536 -115q0 -172 75.5 -268t233.5 -96q76 0 140.5 22.5t125.5 63.5l21 -62q-37 -25 -81 -59.5 t-99.5 -67.5t-122 -55.5t-146.5 -22.5q-63 0 -113.5 14.5t-89 37t-66.5 50t-50 56.5q-33 -23 -75 -50.5t-89 -52t-99.5 -41t-107.5 -16.5q-111 0 -174 63.5t-63 174.5q0 82 36.5 132t92 81t123 48t128.5 32q72 18 150 30v236zM596 467q-45 -12 -91 -22.5t-85 -30t-63.5 -54 t-24.5 -94.5q0 -61 35.5 -107t103.5 -46q33 0 59.5 8t48 19.5t37 22.5t25.5 17q-29 68 -37 140.5t-8 146.5z" />
<glyph unicode="&#xe7;" horiz-adv-x="1024" d="M977 158q-47 -35 -98.5 -69t-105.5 -60.5t-111.5 -43t-118.5 -16.5q-111 0 -195 42t-140 113t-85 164t-29 197q0 123 34 222.5t96.5 169t151.5 106.5t202 37q168 0 264 -56.5t96 -152.5q0 -57 -45 -95t-129 -38q-37 0 -64.5 10t-31.5 21q-10 23 6 48t16 64q0 66 -38 97.5 t-79 31.5q-55 0 -91 -32.5t-56 -85t-28.5 -120t-8.5 -134.5q0 -92 23.5 -171t66.5 -135.5t102.5 -89t129.5 -32.5q74 0 139 28.5t127 63.5v-84zM481 -139q33 10 79 10t89 -13.5t72.5 -44t29.5 -83.5q0 -86 -76.5 -132.5t-195.5 -46.5q-92 0 -155.5 21.5t-96.5 40.5l37 68 q35 -20 84 -37t84 -17q39 0 70.5 12.5t48.5 49.5q16 37 -9.5 70.5t-66.5 33.5t-82 -6l-19 14l93 199h77z" />
<glyph unicode="&#xe8;" horiz-adv-x="1024" d="M360 539q8 -199 83 -304.5t241 -105.5q47 0 87 11.5t74 27.5t61.5 35.5t51.5 34.5l25 -62q-104 -84 -211.5 -145.5t-241.5 -61.5q-111 0 -194.5 42t-140 113t-85 164t-28.5 197q0 123 34 222.5t96 169t151.5 106.5t201.5 37q102 0 177 -41t120 -108.5t58.5 -154.5 t-7.5 -177h-553zM676 621q2 61 0 120.5t-16.5 105.5t-43 74.5t-81.5 28.5q-47 0 -80 -27.5t-54.5 -73.5t-31 -105.5t-9.5 -122.5h316zM661 1126q-96 55 -174 96.5t-130 73t-74.5 60t-8.5 61.5q23 53 84 53q31 0 78 -35.5t100 -88t109.5 -112.5t107.5 -108h-92z" />
<glyph unicode="&#xe9;" horiz-adv-x="1024" d="M360 539q8 -199 83 -304.5t241 -105.5q47 0 87 11.5t74 27.5t61.5 35.5t51.5 34.5l25 -62q-104 -84 -211.5 -145.5t-241.5 -61.5q-111 0 -194.5 42t-140 113t-85 164t-28.5 197q0 123 34 222.5t96 169t151.5 106.5t201.5 37q102 0 177 -41t120 -108.5t58.5 -154.5 t-7.5 -177h-553zM676 621q2 61 0 120.5t-16.5 105.5t-43 74.5t-81.5 28.5q-47 0 -80 -27.5t-54.5 -73.5t-31 -105.5t-9.5 -122.5h316zM268 1126q51 47 107.5 107.5t109.5 113t100.5 88t77.5 35.5q61 0 84 -53q14 -33 -8.5 -61.5t-74.5 -60t-130 -72.5t-174 -97h-92z" />
<glyph unicode="&#xea;" horiz-adv-x="1024" d="M360 539q8 -199 83 -304.5t241 -105.5q47 0 87 11.5t74 27.5t61.5 35.5t51.5 34.5l25 -62q-104 -84 -211.5 -145.5t-241.5 -61.5q-111 0 -194.5 42t-140 113t-85 164t-28.5 197q0 123 34 222.5t96 169t151.5 106.5t201.5 37q102 0 177 -41t120 -108.5t58.5 -154.5 t-7.5 -177h-553zM676 621q2 61 0 120.5t-16.5 105.5t-43 74.5t-81.5 28.5q-47 0 -80 -27.5t-54.5 -73.5t-31 -105.5t-9.5 -122.5h316zM575 1470l254 -346h-90l-231 199l-238 -199h-82l266 346h121z" />
<glyph unicode="&#xeb;" horiz-adv-x="1024" d="M360 539q8 -199 83 -304.5t241 -105.5q47 0 87 11.5t74 27.5t61.5 35.5t51.5 34.5l25 -62q-104 -84 -211.5 -145.5t-241.5 -61.5q-111 0 -194.5 42t-140 113t-85 164t-28.5 197q0 123 34 222.5t96 169t151.5 106.5t201.5 37q102 0 177 -41t120 -108.5t58.5 -154.5 t-7.5 -177h-553zM676 621q2 61 0 120.5t-16.5 105.5t-43 74.5t-81.5 28.5q-47 0 -80 -27.5t-54.5 -73.5t-31 -105.5t-9.5 -122.5h316zM290 1165q-51 0 -91 40t-40 91t39 91t92 40t92.5 -38.5t39.5 -92.5q0 -53 -39.5 -92t-92.5 -39zM731 1165q-51 0 -91 40t-40 91t39 91 t92 40t92 -38.5t39 -92.5q0 -53 -39 -92t-92 -39z" />
<glyph unicode="&#xec;" horiz-adv-x="681" d="M205 119v680l-156 41v78q98 4 211 34.5t197 67.5l22 -14v-887l154 -41v-78h-584v78zM491 1126q-96 55 -174 96.5t-130 73t-74.5 60t-8.5 61.5q23 53 84 53q31 0 78 -35.5t100 -88t109.5 -112.5t107.5 -108h-92z" />
<glyph unicode="&#xed;" horiz-adv-x="681" d="M205 119v680l-156 41v78q98 4 211 34.5t197 67.5l22 -14v-887l154 -41v-78h-584v78zM98 1126q51 47 107.5 107.5t109.5 113t100.5 88t77.5 35.5q61 0 84 -53q14 -33 -8.5 -61.5t-74.5 -60t-130 -72.5t-174 -97h-92z" />
<glyph unicode="&#xee;" horiz-adv-x="681" d="M205 119v680l-156 41v78q98 4 211 34.5t197 67.5l22 -14v-887l154 -41v-78h-584v78zM405 1470l254 -346h-90l-231 199l-238 -199h-82l266 346h121z" />
<glyph unicode="&#xef;" horiz-adv-x="681" d="M205 119v680l-156 41v78q98 4 211 34.5t197 67.5l22 -14v-887l154 -41v-78h-584v78zM120 1165q-51 0 -91 40t-40 91t39 91t92 40t92.5 -38.5t39.5 -92.5q0 -53 -39.5 -92t-92.5 -39zM561 1165q-51 0 -91 40t-40 91t39 91t92 40t92 -38.5t39 -92.5q0 -53 -39 -92t-92 -39z " />
<glyph unicode="&#xf0;" d="M569 39q55 0 92 38t58.5 97t30 136t8.5 153q0 248 -54.5 369.5t-144.5 117.5q-59 0 -94 -33.5t-53.5 -89t-24.5 -127t-6 -149.5q0 -98 8 -190.5t28.5 -164t57.5 -114.5t94 -43zM862 1530l-200 -125q80 -78 150.5 -180.5t124.5 -219t85 -243.5t31 -256q0 -113 -30 -210 t-89.5 -170t-148.5 -115t-210 -42q-254 0 -371.5 139.5t-117.5 387.5q0 262 122 392t357 132q78 0 154 -35q-29 98 -75 185t-101 161l-217 -135l-47 78l208 129q-47 55 -92 98t-86 74l31 31q123 -31 252 -138l223 138z" />
<glyph unicode="&#xf1;" horiz-adv-x="1251" d="M182 817l-125 41v78q98 4 195.5 34.5t181.5 67.5l23 -14v-176q59 33 102 64.5t83 55t81 38t96 14.5q51 0 97.5 -12.5t80 -42t53 -76.5t19.5 -115v-655l139 -41v-78h-540v78l127 41v575q0 78 -31 116t-109 38q-53 0 -101 -22.5t-97 -51.5v-655l127 -41v-78h-541v78l139 41 v698zM344 1178q-2 53 15.5 98t50 75.5t77.5 41t101 -6.5q47 -12 97 -32.5t101 -12.5q39 6 46.5 34t13.5 50h63q0 -41 -9 -81.5t-29.5 -72.5t-53.5 -51.5t-80 -19.5q-33 0 -64.5 8.5t-63 19.5t-62.5 20t-66 12q-41 4 -56 -19.5t-22 -62.5h-59z" />
<glyph unicode="&#xf2;" d="M565 1020q246 0 367 -137.5t121 -376.5q0 -113 -30 -210t-89.5 -170t-148.5 -115t-210 -42q-254 0 -371.5 139.5t-117.5 387.5q0 262 121.5 392t357.5 132zM559 950q-59 0 -94 -33.5t-53.5 -89t-24.5 -127t-6 -149.5q0 -98 8 -190.5t28.5 -164t57.5 -114.5t94 -43 q55 0 92 38t58.5 97t30 136t8.5 153q0 248 -54.5 369.5t-144.5 117.5zM719 1126q-96 55 -174 96.5t-130 73t-74.5 60t-8.5 61.5q23 53 84 53q31 0 78 -35.5t100 -88t109.5 -112.5t107.5 -108h-92z" />
<glyph unicode="&#xf3;" d="M565 1020q246 0 367 -137.5t121 -376.5q0 -113 -30 -210t-89.5 -170t-148.5 -115t-210 -42q-254 0 -371.5 139.5t-117.5 387.5q0 262 121.5 392t357.5 132zM559 950q-59 0 -94 -33.5t-53.5 -89t-24.5 -127t-6 -149.5q0 -98 8 -190.5t28.5 -164t57.5 -114.5t94 -43 q55 0 92 38t58.5 97t30 136t8.5 153q0 248 -54.5 369.5t-144.5 117.5zM326 1126q51 47 107.5 107.5t109.5 113t100.5 88t77.5 35.5q61 0 84 -53q14 -33 -8.5 -61.5t-74.5 -60t-130 -72.5t-174 -97h-92z" />
<glyph unicode="&#xf4;" d="M565 1020q246 0 367 -137.5t121 -376.5q0 -113 -30 -210t-89.5 -170t-148.5 -115t-210 -42q-254 0 -371.5 139.5t-117.5 387.5q0 262 121.5 392t357.5 132zM559 950q-59 0 -94 -33.5t-53.5 -89t-24.5 -127t-6 -149.5q0 -98 8 -190.5t28.5 -164t57.5 -114.5t94 -43 q55 0 92 38t58.5 97t30 136t8.5 153q0 248 -54.5 369.5t-144.5 117.5zM633 1470l254 -346h-90l-231 199l-238 -199h-82l266 346h121z" />
<glyph unicode="&#xf5;" d="M565 1020q246 0 367 -137.5t121 -376.5q0 -113 -30 -210t-89.5 -170t-148.5 -115t-210 -42q-254 0 -371.5 139.5t-117.5 387.5q0 262 121.5 392t357.5 132zM559 950q-59 0 -94 -33.5t-53.5 -89t-24.5 -127t-6 -149.5q0 -98 8 -190.5t28.5 -164t57.5 -114.5t94 -43 q55 0 92 38t58.5 97t30 136t8.5 153q0 248 -54.5 369.5t-144.5 117.5zM287 1178q-2 53 15.5 98t50 75.5t77.5 41t101 -6.5q47 -12 97 -32.5t101 -12.5q39 6 46.5 34t13.5 50h63q0 -41 -9 -81.5t-29.5 -72.5t-53.5 -51.5t-80 -19.5q-33 0 -64.5 8.5t-63 19.5t-62.5 20t-66 12 q-41 4 -56 -19.5t-22 -62.5h-59z" />
<glyph unicode="&#xf6;" d="M565 1020q246 0 367 -137.5t121 -376.5q0 -113 -30 -210t-89.5 -170t-148.5 -115t-210 -42q-254 0 -371.5 139.5t-117.5 387.5q0 262 121.5 392t357.5 132zM559 950q-59 0 -94 -33.5t-53.5 -89t-24.5 -127t-6 -149.5q0 -98 8 -190.5t28.5 -164t57.5 -114.5t94 -43 q55 0 92 38t58.5 97t30 136t8.5 153q0 248 -54.5 369.5t-144.5 117.5zM348 1165q-51 0 -91 40t-40 91t39 91t92 40t92.5 -38.5t39.5 -92.5q0 -53 -39.5 -92t-92.5 -39zM789 1165q-51 0 -91 40t-40 91t39 91t92 40t92 -38.5t39 -92.5q0 -53 -39 -92t-92 -39z" />
<glyph unicode="&#xf7;" d="M1022 575v-165h-907v165h907zM567 754q-55 0 -93 38.5t-38 92.5q0 55 38 95t93 40t95 -40t40 -95t-40 -93t-95 -38zM567 -35q-55 0 -93 39t-38 92q0 55 38 95t93 40t95 -39.5t40 -95.5q0 -55 -40 -93t-95 -38z" />
<glyph unicode="&#xf8;" d="M743 743q-49 211 -170 207q-59 0 -94 -33.5t-53 -89t-24.5 -127t-6.5 -149.5q0 -90 6 -176zM418 262q18 -100 57 -161.5t109 -61.5q55 0 92 38t58.5 97t29.5 136t8 153q0 49 -3 92t-7 80zM1081 977l-112 -121q98 -131 98 -350q0 -113 -29.5 -210t-89 -170t-148.5 -115 t-210 -42q-221 0 -342 111l-115 -123l-61 59l118 129q-47 66 -68.5 153t-21.5 198q0 262 122 392t358 132q104 0 186 -26.5t141 -73.5l107 114z" />
<glyph unicode="&#xf9;" horiz-adv-x="1251" d="M782 842l-145 41v78q106 4 212.5 18t184.5 41l23 -14v-846l123 -27v-78q-98 -16 -193.5 -36.5t-193.5 -53.5l-11 10v148q-45 -25 -84 -49.5t-77.5 -45t-83.5 -33.5t-105 -13q-111 0 -179.5 57t-68.5 197v606l-145 41v78q106 4 212.5 18t184.5 41l23 -14v-680 q-4 -104 34.5 -144.5t110.5 -40.5q59 0 103.5 24.5t74.5 51.5v625zM776 1126q-96 55 -174 96.5t-130 73t-74.5 60t-8.5 61.5q23 53 84 53q31 0 78 -35.5t100 -88t109.5 -112.5t107.5 -108h-92z" />
<glyph unicode="&#xfa;" horiz-adv-x="1251" d="M782 842l-145 41v78q106 4 212.5 18t184.5 41l23 -14v-846l123 -27v-78q-98 -16 -193.5 -36.5t-193.5 -53.5l-11 10v148q-45 -25 -84 -49.5t-77.5 -45t-83.5 -33.5t-105 -13q-111 0 -179.5 57t-68.5 197v606l-145 41v78q106 4 212.5 18t184.5 41l23 -14v-680 q-4 -104 34.5 -144.5t110.5 -40.5q59 0 103.5 24.5t74.5 51.5v625zM383 1126q51 47 107.5 107.5t109.5 113t100.5 88t77.5 35.5q61 0 84 -53q14 -33 -8.5 -61.5t-74.5 -60t-130 -72.5t-174 -97h-92z" />
<glyph unicode="&#xfb;" horiz-adv-x="1251" d="M782 842l-145 41v78q106 4 212.5 18t184.5 41l23 -14v-846l123 -27v-78q-98 -16 -193.5 -36.5t-193.5 -53.5l-11 10v148q-45 -25 -84 -49.5t-77.5 -45t-83.5 -33.5t-105 -13q-111 0 -179.5 57t-68.5 197v606l-145 41v78q106 4 212.5 18t184.5 41l23 -14v-680 q-4 -104 34.5 -144.5t110.5 -40.5q59 0 103.5 24.5t74.5 51.5v625zM690 1470l254 -346h-90l-231 199l-238 -199h-82l266 346h121z" />
<glyph unicode="&#xfc;" horiz-adv-x="1251" d="M782 842l-145 41v78q106 4 212.5 18t184.5 41l23 -14v-846l123 -27v-78q-98 -16 -193.5 -36.5t-193.5 -53.5l-11 10v148q-45 -25 -84 -49.5t-77.5 -45t-83.5 -33.5t-105 -13q-111 0 -179.5 57t-68.5 197v606l-145 41v78q106 4 212.5 18t184.5 41l23 -14v-680 q-4 -104 34.5 -144.5t110.5 -40.5q59 0 103.5 24.5t74.5 51.5v625zM405 1165q-51 0 -91 40t-40 91t39 91t92 40t92.5 -38.5t39.5 -92.5q0 -53 -39.5 -92t-92.5 -39zM846 1165q-51 0 -91 40t-40 91t39 91t92 40t92 -38.5t39 -92.5q0 -53 -39 -92t-92 -39z" />
<glyph unicode="&#xfd;" d="M156 885q-25 10 -60 18t-63 8v78h540v-78q-31 0 -61.5 -6t-58.5 -16l198 -617l211 617q-39 16 -79 19t-74 3v78h387v-78q-63 0 -105 -32q-104 -242 -190 -464t-160 -401.5t-141.5 -303.5t-134.5 -171h-189l-10 31q49 27 99 71t93 95t78 102t56 92zM326 1126 q51 47 107.5 107.5t109.5 113t100.5 88t77.5 35.5q61 0 84 -53q14 -33 -8.5 -61.5t-74.5 -60t-130 -72.5t-174 -97h-92z" />
<glyph unicode="&#xfe;" d="M451 88q14 -6 53 -19.5t86 1.5q61 16 98 58t57.5 95t27.5 113.5t7 114.5q0 76 -17.5 151.5t-56 132t-102 86t-153.5 13.5v-746zM176 -340v1499l-135 41v78q104 25 203.5 61.5t183.5 90.5l23 -15v-514q59 35 117.5 74t138.5 45q84 0 149.5 -39t111.5 -105.5t70.5 -155.5 t24.5 -192q0 -117 -34 -219t-93 -178t-143 -119t-185 -43q-41 0 -82 12.5t-75 34.5v-356l180 -41v-78h-588v78z" />
<glyph unicode="&#xff;" d="M156 885q-25 10 -60 18t-63 8v78h540v-78q-31 0 -61.5 -6t-58.5 -16l198 -617l211 617q-39 16 -79 19t-74 3v78h387v-78q-63 0 -105 -32q-104 -242 -190 -464t-160 -401.5t-141.5 -303.5t-134.5 -171h-189l-10 31q49 27 99 71t93 95t78 102t56 92zM348 1165q-51 0 -91 40 t-40 91t39 91t92 40t92.5 -38.5t39.5 -92.5q0 -53 -39.5 -92t-92.5 -39zM789 1165q-51 0 -91 40t-40 91t39 91t92 40t92 -38.5t39 -92.5q0 -53 -39 -92t-92 -39z" />
<glyph unicode="&#x131;" horiz-adv-x="681" d="M205 119v680l-156 41v78q98 4 211 34.5t197 67.5l22 -14v-887l154 -41v-78h-584v78z" />
<glyph unicode="&#x152;" horiz-adv-x="2048" d="M1116 135q-66 -66 -170 -116t-262 -50q-176 0 -292 60.5t-183.5 163t-95 237.5t-27.5 283q0 211 53.5 354t142.5 230t207.5 125t247.5 38q104 0 205.5 -26.5t173.5 -110.5v107h807l16 -365h-71l-70 235h-401v-512h258l63 197h64q-4 -63 -8.5 -125.5t-4.5 -126.5 q0 -63 4.5 -126.5t8.5 -127.5h-70l-57 197h-258v-543h405l107 270h76l-74 -403h-795v135zM418 709q0 -313 82 -481.5t256 -168.5q109 0 178.5 49.5t110 143.5t57 230t16.5 311q0 133 -16.5 239.5t-55 181t-102 115.5t-158.5 41q-123 0 -196.5 -67.5t-111.5 -168t-49 -215 t-11 -210.5z" />
<glyph unicode="&#x153;" horiz-adv-x="1705" d="M1350 621q2 61 0 120.5t-16.5 105.5t-43 74.5t-82.5 28.5q-47 0 -79.5 -27.5t-53 -73.5t-30 -105.5t-9.5 -122.5h314zM1036 539q-4 -88 13.5 -163t60.5 -130.5t110.5 -86t161.5 -30.5q68 0 129.5 27.5t116.5 64.5l25 -59q-49 -37 -97.5 -71t-100.5 -61.5t-108.5 -44 t-119.5 -16.5q-102 0 -175 30t-147 101q-68 -66 -158 -98.5t-184 -32.5q-254 0 -371.5 139.5t-117.5 387.5q0 262 121.5 393t357.5 131q113 0 207 -33t162 -108q53 72 139 106.5t174 34.5q109 0 181.5 -40t115.5 -105.5t58.5 -152.5t8.5 -183h-563zM547 950q-59 0 -94 -33.5 t-53.5 -89t-24.5 -127t-6 -149.5q0 -98 8 -190.5t28.5 -164t57.5 -114.5t94 -43q55 0 91 38t56.5 97t28.5 136t8 153q0 248 -52 369.5t-142 117.5z" />
<glyph unicode="&#x178;" horiz-adv-x="1478" d="M641 119v497l-420 695l-162 41v78h736v-78l-213 -41l307 -525l301 525l-186 41v78h448v-78l-123 -41l-389 -654v-538l242 -41v-78h-779v78zM518 1605q-51 0 -91 40t-40 91t39 91t92 40t92.5 -38.5t39.5 -92.5q0 -53 -39.5 -92t-92.5 -39zM959 1605q-51 0 -91 40t-40 91 t39 91t92 40t92 -38.5t39 -92.5q0 -53 -39 -92t-92 -39z" />
<glyph unicode="&#x2c6;" horiz-adv-x="569" d="M348 1470l254 -346h-90l-231 199l-238 -199h-82l266 346h121z" />
<glyph unicode="&#x2da;" horiz-adv-x="569" d="M66 1350q0 45 17 84t48 68.5t71 47t83 17.5q45 0 84 -17.5t68.5 -46t47 -68.5t17.5 -85t-17.5 -85t-46 -69t-68.5 -46t-85 -17t-85 17t-70 47t-47 69t-17 84zM285 1229q49 0 85 34.5t36 86.5q0 49 -36 84.5t-85 35.5t-86 -35.5t-37 -84.5t37 -85t86 -36z" />
<glyph unicode="&#x2dc;" horiz-adv-x="569" d="M2 1178q-2 53 15.5 98t50 75.5t77.5 41t101 -6.5q47 -12 97 -32.5t101 -12.5q39 6 46.5 34t13.5 50h63q0 -41 -9 -81.5t-29.5 -72.5t-53.5 -51.5t-80 -19.5q-33 0 -64.5 8.5t-63 19.5t-62.5 20t-66 12q-41 4 -56 -19.5t-22 -62.5h-59z" />
<glyph unicode="&#x2000;" horiz-adv-x="1003" />
<glyph unicode="&#x2001;" horiz-adv-x="2007" />
<glyph unicode="&#x2002;" horiz-adv-x="1003" />
<glyph unicode="&#x2003;" horiz-adv-x="2007" />
<glyph unicode="&#x2004;" horiz-adv-x="669" />
<glyph unicode="&#x2005;" horiz-adv-x="501" />
<glyph unicode="&#x2006;" horiz-adv-x="334" />
<glyph unicode="&#x2007;" horiz-adv-x="334" />
<glyph unicode="&#x2008;" horiz-adv-x="250" />
<glyph unicode="&#x2009;" horiz-adv-x="401" />
<glyph unicode="&#x200a;" horiz-adv-x="111" />
<glyph unicode="&#x2010;" horiz-adv-x="681" d="M82 358v260h516v-260h-516z" />
<glyph unicode="&#x2011;" horiz-adv-x="681" d="M82 358v260h516v-260h-516z" />
<glyph unicode="&#x2012;" horiz-adv-x="681" d="M82 358v260h516v-260h-516z" />
<glyph unicode="&#x2013;" horiz-adv-x="1024" d="M0 573h1024v-170h-1024v170z" />
<glyph unicode="&#x2014;" horiz-adv-x="2048" d="M0 403v170h2048v-170h-2048z" />
<glyph unicode="&#x2018;" horiz-adv-x="569" d="M487 1430q-18 -45 -39.5 -92.5t-40 -94.5t-30.5 -96t-12 -100t9 -81t20.5 -48.5t20.5 -29.5t9 -24q-63 -20 -128 -36.5t-130 -20.5q-25 29 -35 53.5t-10 63.5q0 45 31.5 114.5t75.5 143t89 141.5t72 107h98z" />
<glyph unicode="&#x2019;" horiz-adv-x="569" d="M82 838q18 47 39.5 93t40 93t31 96t12.5 101q0 51 -9.5 80.5t-20.5 48t-20.5 30t-9.5 23.5q63 20 128 36.5t130 20.5q25 -29 35.5 -53.5t10.5 -63.5q0 -45 -32 -114.5t-76 -143t-89 -140t-72 -107.5h-98z" />
<glyph unicode="&#x201a;" horiz-adv-x="569" d="M82 -383q18 45 39.5 92t40 94t31 96.5t12.5 100.5t-9.5 81t-20.5 48t-20.5 29.5t-9.5 23.5q63 20 128 37t130 21q25 -29 35.5 -53.5t10.5 -63.5q0 -45 -32 -114.5t-76 -143.5t-89 -141.5t-72 -106.5h-98z" />
<glyph unicode="&#x201c;" d="M551 1430q-18 -45 -40 -92.5t-40 -94.5t-30.5 -96t-12.5 -100t9 -81t20.5 -48.5t20.5 -29.5t9 -24q-63 -20 -127.5 -36.5t-130.5 -20.5q-25 29 -35 53.5t-10 63.5q0 45 32 114.5t76 143t89 141.5t72 107h98zM993 1430q-18 -45 -39.5 -92.5t-40 -94.5t-31 -96t-12.5 -100 t9.5 -81t20.5 -48.5t20.5 -29.5t9.5 -24q-63 -20 -128 -36.5t-130 -20.5q-25 29 -35 53.5t-10 63.5q0 45 31.5 114.5t75.5 143t89 141.5t72 107h98z" />
<glyph unicode="&#x201d;" d="M145 838q18 47 40 93t40.5 93t30.5 96t12 101q0 51 -9 80.5t-20.5 48t-20.5 30t-9 23.5q63 20 127.5 36.5t130.5 20.5q25 -29 35 -53.5t10 -63.5q0 -45 -31.5 -114.5t-76 -143t-89.5 -140t-71 -107.5h-99zM588 838q18 47 39.5 93t40 93t31 96t12.5 101q0 51 -9.5 80.5 t-20.5 48t-20.5 30t-9.5 23.5q63 20 128 36.5t130 20.5q25 -29 35 -53.5t10 -63.5q0 -45 -31.5 -114.5t-75.5 -143t-89 -140t-72 -107.5h-98z" />
<glyph unicode="&#x201e;" d="M145 -383q18 45 40 92t40.5 94t30.5 96.5t12 100.5t-9 81t-20.5 48t-20.5 29.5t-9 23.5q63 20 127.5 37t130.5 21q25 -29 35 -53.5t10 -63.5q0 -45 -31.5 -114.5t-76 -143.5t-89.5 -141.5l-71 -106.5h-99zM588 -383q18 45 39.5 92t40 94t31 96.5t12.5 100.5t-9.5 81 t-20.5 48t-20.5 29.5t-9.5 23.5q63 20 128 37t130 21q25 -29 35 -53.5t10 -63.5q0 -45 -31.5 -114.5t-75.5 -143.5t-89 -141.5t-72 -106.5h-98z" />
<glyph unicode="&#x2022;" horiz-adv-x="1024" d="M160 715q0 66 22.5 129t66.5 112.5t109.5 80t153.5 30.5t153.5 -30.5t109.5 -80t66.5 -113t22.5 -128.5q0 -66 -22.5 -129.5t-66.5 -112.5t-109.5 -80t-153.5 -31t-153.5 31t-109.5 80t-66.5 112.5t-22.5 129.5z" />
<glyph unicode="&#x2026;" horiz-adv-x="2048" d="M340 -31q-72 0 -121 49.5t-49 120.5q0 72 49 123t121 51t123 -51t51 -123t-51 -121t-123 -49zM1022 -31q-72 0 -121 49.5t-49 120.5q0 72 49 123t121 51t123 -51t51 -123t-51 -121t-123 -49zM1704 -31q-72 0 -121 49.5t-49 120.5q0 72 49 123t121 51t123 -51t51 -123 t-51 -121t-123 -49z" />
<glyph unicode="&#x202f;" horiz-adv-x="401" />
<glyph unicode="&#x2039;" horiz-adv-x="569" d="M469 846q-23 -39 -49.5 -82t-48 -89t-35.5 -93t-14 -95q0 -45 14 -93t35.5 -94t48 -89t49.5 -82h-74q-31 27 -81 70t-98 92t-83 101t-35 100q0 43 35 94t83 100t98.5 91t80.5 69h74z" />
<glyph unicode="&#x203a;" horiz-adv-x="569" d="M98 129q23 39 49.5 82t48 89t36 94t14.5 93q0 47 -14.5 94.5t-36 93.5t-48 89t-49.5 82h74q31 -27 81 -70t98 -92t83 -101.5t35 -99.5q0 -43 -35 -94t-83 -100t-98 -91t-81 -69h-74z" />
<glyph unicode="&#x205f;" horiz-adv-x="501" />
<glyph unicode="&#x2122;" horiz-adv-x="1761" d="M481 842q0 -37 32 -43t62 -6v-66h-335v66q12 0 28.5 1t30.5 5t24.5 14t10.5 29v526q-47 0 -80 -1t-53.5 -13.5t-29.5 -39t-9 -75.5h-66v191h623v-191h-66q0 47 -7 72.5t-25.5 38t-52 15.5t-87.5 3v-526zM1616 889q0 -55 20.5 -75.5t53.5 -20.5v-66h-293v66q51 0 61 24.5 t10 69.5v440h-4l-233 -600h-29l-246 600h-4v-465q0 -53 23.5 -61t54.5 -8v-66h-231v66q37 0 56 15t19 75v444q0 29 -17 33t-44 4v66h254l180 -461l205 461h238v-66q-31 0 -52.5 -11.5t-21.5 -45.5v-418z" />
<glyph unicode="&#x25fc;" horiz-adv-x="993" d="M0 993h993v-993h-993v993z" />
<glyph unicode="&#xfb01;" horiz-adv-x="1251" d="M35 895l147 35q0 31 1 68.5t3 75.5t4.5 72t4.5 56q6 96 49 171t105.5 127t138 79t149.5 27q78 0 152.5 -19.5t134 -57.5t96.5 -97.5t37 -139.5q0 -66 -36 -107.5t-116 -41.5q-53 0 -92 34.5t-39 90.5q0 51 27.5 83.5t58.5 45.5q-14 53 -52 92t-128 39q-82 0 -127 -41 t-66.5 -100.5t-25.5 -125t-4 -116.5v-215h245q92 0 182.5 30.5t159.5 59.5l23 -14v-887l147 -41v-78h-559v78l138 41v698h-336v-698l139 -41v-78h-561v78l147 41v698h-147v78z" />
<glyph unicode="&#xfb02;" horiz-adv-x="1251" d="M35 895l147 35v266q0 88 27 163t78 130t125.5 86t171.5 31q82 0 159.5 -35t120.5 -109l180 144l23 -15v-1472l147 -41v-78h-561v78l140 41v1122q0 59 -7.5 111.5t-26 91.5t-51 61.5t-81.5 22.5q-53 0 -87 -27.5t-52.5 -74t-24.5 -102.5t-6 -116v-278h176v-113h-176v-698 l139 -41v-78h-561v78l147 41v698h-147v78z" />
</font>
</defs>
</svg>
